<svg width="24" height="29" viewBox="0 0 24 29" fill="none" xmlns="http://www.w3.org/2000/svg">
  <path fill-rule="evenodd" clip-rule="evenodd" d="M15.837 5.52346C16.7493 4.34578 17.4409 2.68125 17.1908 0.982178C15.6997 1.0858 13.9568 2.03978 12.9399 3.28325C12.0129 4.40993 11.251 6.08598 11.5486 7.71268C13.1786 7.76367 14.861 6.78666 15.837 5.52346Z" fill="white"/>
  <path fill-rule="evenodd" clip-rule="evenodd" d="M23.8938 21.5059C23.2415 22.9599 22.9276 23.6096 22.0872 24.8975C20.9149 26.6952 19.262 28.9338 17.2118 28.9503C15.3921 28.97 14.9228 27.7578 12.4524 27.7726C9.98202 27.7857 9.46702 28.9733 7.64405 28.9552C5.59546 28.9371 4.02917 26.9173 2.85692 25.1195C-0.422792 20.0963 -0.767766 14.1997 1.25467 11.0631C2.69342 8.83606 4.96273 7.53338 7.0947 7.53338C9.26428 7.53338 10.6295 8.73079 12.4263 8.73079C14.1691 8.73079 15.2302 7.53009 17.7399 7.53009C19.6397 7.53009 21.6523 8.57125 23.0845 10.3674C18.3889 12.9563 19.1492 19.7016 23.8938 21.5059Z" fill="white"/>
</svg>
