<svg width="23" height="11" viewBox="0 0 23 11" fill="none" xmlns="http://www.w3.org/2000/svg">
<path d="M11.5 0C12.5742 0 13.6198 0.139648 14.6367 0.418945C15.6536 0.698242 16.6276 1.08496 17.5586 1.5791C18.4967 2.06608 19.3776 2.64616 20.2012 3.31934C21.0319 3.99251 21.7982 4.7194 22.5 5.5C21.7982 6.28776 21.0319 7.01823 20.2012 7.69141C19.3776 8.35742 18.4967 8.9375 17.5586 9.43164C16.6276 9.91862 15.6536 10.3018 14.6367 10.5811C13.6198 10.8604 12.5742 11 11.5 11C10.4258 11 9.38021 10.8604 8.36328 10.5811C7.34635 10.3018 6.36881 9.91862 5.43066 9.43164C4.49967 8.9375 3.61882 8.35742 2.78809 7.69141C1.95736 7.01823 1.19466 6.28776 0.5 5.5C1.19466 4.7194 1.95736 3.99251 2.78809 3.31934C3.61882 2.64616 4.49967 2.06608 5.43066 1.5791C6.36881 1.08496 7.34635 0.698242 8.36328 0.418945C9.38021 0.139648 10.4258 0 11.5 0ZM15.625 5.5C15.625 4.93424 15.514 4.40072 15.292 3.89941C15.0771 3.39811 14.7835 2.96126 14.4111 2.58887C14.0387 2.21647 13.6019 1.92285 13.1006 1.70801C12.5993 1.486 12.0658 1.375 11.5 1.375C10.9342 1.375 10.4007 1.486 9.89941 1.70801C9.39811 1.92285 8.96126 2.21647 8.58887 2.58887C8.21647 2.96126 7.91927 3.39811 7.69727 3.89941C7.48242 4.40072 7.375 4.93424 7.375 5.5C7.375 6.06576 7.48242 6.59928 7.69727 7.10059C7.91927 7.60189 8.21647 8.03874 8.58887 8.41113C8.96126 8.78353 9.39811 9.08073 9.89941 9.30273C10.4007 9.51758 10.9342 9.625 11.5 9.625C12.0658 9.625 12.5993 9.51758 13.1006 9.30273C13.6019 9.08073 14.0387 8.78353 14.4111 8.41113C14.7835 8.03874 15.0771 7.60189 15.292 7.10059C15.514 6.59928 15.625 6.06576 15.625 5.5ZM2.40137 5.5C3.07454 6.15169 3.79069 6.74967 4.5498 7.29395C5.30892 7.83105 6.12174 8.28223 6.98828 8.64746C6.66602 8.18913 6.41895 7.69141 6.24707 7.1543C6.08236 6.61003 6 6.05859 6 5.5C6 4.94141 6.08236 4.39355 6.24707 3.85645C6.41895 3.31217 6.66602 2.81087 6.98828 2.35254C6.12174 2.71777 5.30892 3.17253 4.5498 3.7168C3.79069 4.25391 3.07454 4.84831 2.40137 5.5ZM16.0117 8.64746C16.8783 8.28223 17.6911 7.83105 18.4502 7.29395C19.2093 6.74967 19.9255 6.15169 20.5986 5.5C19.9255 4.84831 19.2093 4.25391 18.4502 3.7168C17.6911 3.17253 16.8783 2.71777 16.0117 2.35254C16.334 2.81087 16.5775 3.31217 16.7422 3.85645C16.9141 4.39355 17 4.94141 17 5.5C17 6.05859 16.9141 6.61003 16.7422 7.1543C16.5775 7.69141 16.334 8.18913 16.0117 8.64746ZM11.5 6.875C11.3066 6.875 11.1276 6.83919 10.9629 6.76758C10.7982 6.69596 10.6514 6.59928 10.5225 6.47754C10.4007 6.34863 10.304 6.20182 10.2324 6.03711C10.1608 5.8724 10.125 5.69336 10.125 5.5C10.125 5.30664 10.1608 5.1276 10.2324 4.96289C10.304 4.79818 10.4007 4.65495 10.5225 4.5332C10.6514 4.4043 10.7982 4.30404 10.9629 4.23242C11.1276 4.16081 11.3066 4.125 11.5 4.125C11.6934 4.125 11.8724 4.16081 12.0371 4.23242C12.2018 4.30404 12.3451 4.4043 12.4668 4.5332C12.5957 4.65495 12.696 4.79818 12.7676 4.96289C12.8392 5.1276 12.875 5.30664 12.875 5.5C12.875 5.69336 12.8392 5.8724 12.7676 6.03711C12.696 6.20182 12.5957 6.34863 12.4668 6.47754C12.3451 6.59928 12.2018 6.69596 12.0371 6.76758C11.8724 6.83919 11.6934 6.875 11.5 6.875Z" fill="#90D03E"/>
</svg>
