<svg width="25" height="25" viewBox="0 0 25 25" fill="none" xmlns="http://www.w3.org/2000/svg">
<path fill-rule="evenodd" clip-rule="evenodd" d="M12.5001 0C5.59739 0 0 5.73783 0 12.8164C0 18.4791 3.58166 23.2833 8.54833 24.978C9.17305 25.0966 9.4024 24.6999 9.4024 24.3614C9.4024 24.0558 9.39081 23.0462 9.38543 21.9752C5.90789 22.7505 5.17408 20.4631 5.17408 20.4631C4.60546 18.9816 3.78617 18.5877 3.78617 18.5877C2.65204 17.7923 3.87166 17.8086 3.87166 17.8086C5.12689 17.8988 5.78783 19.1294 5.78783 19.1294C6.90271 21.0887 8.71207 20.5223 9.42538 20.1948C9.53757 19.3666 9.86152 18.8008 10.219 18.481C7.44256 18.1569 4.52391 17.0579 4.52391 12.147C4.52391 10.7477 5.01221 9.60437 5.81184 8.70681C5.68205 8.38379 5.25419 7.08044 5.93293 5.31505C5.93293 5.31505 6.98261 4.97059 9.37135 6.6288C10.3685 6.34483 11.4378 6.20242 12.5001 6.19754C13.5624 6.20242 14.6326 6.34483 15.6315 6.6288C18.0174 4.97059 19.0656 5.31505 19.0656 5.31505C19.746 7.08044 19.3179 8.38379 19.1882 8.70681C19.9896 9.60437 20.4746 10.7477 20.4746 12.147C20.4746 17.0696 17.5504 18.1535 14.7669 18.4708C15.2153 18.8685 15.6148 19.6485 15.6148 20.8442C15.6148 22.5589 15.6003 23.9391 15.6003 24.3614C15.6003 24.7025 15.8253 25.1021 16.4589 24.9763C21.4229 23.2797 25 18.4771 25 12.8164C25 5.73783 19.4034 0 12.5001 0Z" fill="#F3CD66"/>
</svg>
