<svg width="21" height="13" viewBox="0 0 21 13" fill="none" xmlns="http://www.w3.org/2000/svg">
<path d="M6.125 0.958374C2.74121 0.958374 0 3.43852 0 6.50004C0 9.56156 2.74121 12.0417 6.125 12.0417C8.90039 12.0417 11.2417 10.3718 11.9937 8.08337H15.75V10.4584H19.25V8.08337H21V4.91671H11.9937C11.2417 2.6283 8.90039 0.958374 6.125 0.958374ZM6.125 4.12504C7.57422 4.12504 8.75 5.18884 8.75 6.50004C8.75 7.81124 7.57422 8.87504 6.125 8.87504C4.67578 8.87504 3.5 7.81124 3.5 6.50004C3.5 5.18884 4.67578 4.12504 6.125 4.12504Z" fill="#D2D2D2"/>
</svg>
