<svg width="24" height="29" viewBox="0 0 24 29" fill="none" xmlns="http://www.w3.org/2000/svg">
  <path
    d="M24.799 24.2816C24.6789 24.1467 24.509 24.0147 24.2901 23.8851C24.257 23.864 24.1667 23.8126 24.0195 23.7321C23.8719 23.651 23.7541 23.581 23.6661 23.5214C23.5786 23.462 23.4636 23.3597 23.3211 23.214C23.1789 23.0685 23.0667 22.9145 22.9844 22.7527C22.9022 22.5911 22.8228 22.3727 22.7461 22.0975C22.6693 21.8223 22.626 21.5176 22.6147 21.1831C22.4613 21.3121 22.3766 21.5684 22.3601 21.9516C22.3436 22.3345 22.426 22.7253 22.6067 23.1245C22.7872 23.5239 23.0583 23.7824 23.4197 23.9014C23.77 24.0203 24.0519 24.1467 24.2658 24.2815C24.479 24.4165 24.6162 24.5699 24.6765 24.7426C24.7368 24.9156 24.6352 25.1016 24.3725 25.301C24.1094 25.5008 23.6879 25.6974 23.1076 25.8923C22.3082 26.1616 21.7413 26.3911 21.4071 26.5797C21.0732 26.7686 20.5834 27.1274 19.9371 27.6558C19.4988 28.0118 19.0335 28.2035 18.5404 28.2305C18.048 28.2576 17.6479 28.0796 17.3415 27.6967C17.0347 27.3138 16.9359 26.7719 17.0456 26.0703C17.2537 24.7219 17.2486 23.67 17.0296 22.9149C16.8544 22.3216 16.8158 21.7982 16.9147 21.3452C17.0131 20.8925 17.1663 20.6283 17.3746 20.5527C17.5821 20.4768 17.807 20.6388 18.048 21.0378C18.0694 21.0917 18.119 21.1969 18.1954 21.3534C18.272 21.5097 18.3349 21.6207 18.3846 21.6851C18.4339 21.7498 18.5078 21.8334 18.6064 21.9361C18.7048 22.0388 18.8287 22.1114 18.9762 22.1548C19.1239 22.1979 19.2962 22.2248 19.4937 22.2355C19.866 22.2462 20.1997 22.1707 20.4957 22.009C20.7913 21.8472 21.0133 21.6665 21.161 21.4669C21.3086 21.2671 21.4567 21.0759 21.6044 20.8924C21.7521 20.7087 21.8809 20.6062 21.9906 20.5845C22.1109 20.5634 22.2205 20.4446 22.3192 20.2286C22.4177 20.0129 22.4834 19.7136 22.5163 19.3307C22.5494 18.9477 22.5218 18.4918 22.4344 17.9635C22.27 17.0245 21.9439 15.9944 21.4567 14.8725C20.9692 13.7505 20.4247 12.8713 19.8223 12.2347C18.7381 11.1021 18.0102 9.92624 17.6374 8.70708C17.2545 7.42342 17.0904 6.26905 17.145 5.24413C17.1999 4.51048 17.0383 3.71483 16.6606 2.85711C16.283 1.99951 15.7816 1.34413 15.1574 0.891046C14.7632 0.599888 14.2757 0.376065 13.6956 0.219519C13.1152 0.0629723 12.5346 -0.00963299 11.9541 0.00102258C11.2424 0.00102258 10.6728 0.11421 10.2458 0.340867C9.36971 0.804838 8.78945 1.36845 8.50452 2.03193C8.2196 2.6953 8.08841 3.51249 8.11016 4.48345C8.15417 6.61949 8.24158 8.29163 8.37311 9.49979C8.21965 10.0608 7.54082 11.1125 6.33605 12.6552C6.11689 12.8711 5.90331 13.1623 5.69519 13.5291C5.4872 13.8959 5.32287 14.2251 5.20244 14.5161C5.08184 14.8073 4.92039 15.228 4.7178 15.7783C4.5151 16.3284 4.37016 16.7169 4.28248 16.9433C4.20584 17.1378 4.08529 17.3639 3.92114 17.6233C3.75681 17.882 3.62511 18.1357 3.52678 18.3834C3.42845 18.6315 3.37356 18.9119 3.36262 19.2249C3.35169 19.4622 3.36262 19.6673 3.39554 19.8397C3.43921 20.099 3.52154 20.1797 3.64185 20.0828C4.13489 19.7159 4.75365 19.9317 5.49824 20.7302C6.02391 21.2911 6.9494 22.5966 8.27449 24.6463C8.38398 24.8296 8.49342 25.0265 8.60291 25.2374C8.71269 25.4474 8.81643 25.7277 8.91511 26.0784C9.01367 26.4295 9.05481 26.7447 9.0383 27.0253C9.02173 27.306 8.89595 27.565 8.66045 27.8019C8.42495 28.0392 8.07172 28.1901 7.60089 28.2548C7.34888 28.2872 7.04526 28.2659 6.68916 28.1901C6.33323 28.1146 5.88144 27.9906 5.33397 27.818C4.78639 27.6456 4.38127 27.5267 4.11838 27.4619C3.73529 27.3754 3.19047 27.2654 2.48397 27.1302C1.77752 26.9952 1.31469 26.8955 1.0957 26.8307C0.723378 26.7338 0.520847 26.5937 0.48805 26.4101C0.455139 26.259 0.531779 26.0002 0.718027 25.6336C0.904391 25.2668 0.997315 25.0022 0.997315 24.8407C1.00813 24.7218 1.00272 24.6035 0.980744 24.4846C0.958995 24.3659 0.934369 24.2741 0.906923 24.2094C0.879535 24.1448 0.832987 24.0476 0.767222 23.918C0.701457 23.7887 0.657728 23.6913 0.635806 23.6269C0.438798 23.1736 0.411353 22.8658 0.5537 22.7043C0.652147 22.564 0.887648 22.5101 1.25997 22.5426C1.81849 22.5966 2.27292 22.5155 2.62344 22.2996C3.20371 21.9437 3.37914 21.3719 3.14904 20.5842C3.14904 20.951 3.08328 21.2258 2.95186 21.4095C2.82045 21.5928 2.59036 21.7817 2.26193 21.976C2.07586 22.0839 1.74714 22.1485 1.27637 22.1705C0.805542 22.192 0.493286 22.2676 0.340006 22.397C0.23057 22.4941 0.173147 22.6398 0.167624 22.834C0.162215 23.0286 0.187014 23.225 0.241674 23.4248C0.296335 23.6244 0.351168 23.8534 0.405829 24.1124C0.460662 24.3715 0.482411 24.5875 0.471594 24.7599C0.460662 24.8784 0.361813 25.1726 0.175737 25.6415C-0.0103398 26.1109 -0.0486599 26.4696 0.060834 26.7176C0.115667 26.8365 0.20859 26.9418 0.340064 27.0333C0.471422 27.125 0.654851 27.2032 0.890295 27.2682C1.12557 27.333 1.34196 27.3842 1.5392 27.4218C1.73621 27.4592 2.00997 27.5081 2.36038 27.5671C2.71084 27.6262 2.99007 27.6779 3.19818 27.7207C3.8991 27.8612 4.69847 28.0931 5.59657 28.4166C6.49456 28.7404 7.10227 28.9073 7.41988 28.918C7.72656 28.9287 8.01942 28.8669 8.29877 28.7318C8.578 28.5972 8.81614 28.4434 9.01333 28.2708C9.21033 28.0981 9.50331 27.9362 9.89198 27.7853C10.2809 27.6342 10.7162 27.5533 11.1981 27.5425C11.4171 27.5319 11.7347 27.5182 12.1508 27.5022C12.567 27.4858 12.879 27.4779 13.0872 27.4779C14.0289 27.4779 14.7407 27.4831 15.2225 27.4939C15.5511 27.505 15.8085 27.5561 15.9948 27.6478C16.1808 27.7394 16.3015 27.8447 16.3561 27.9631C16.4108 28.0821 16.5016 28.2194 16.6276 28.3759C16.7533 28.5322 16.9147 28.6591 17.1116 28.7561C17.5276 28.9504 18.0152 29.0286 18.5738 28.9908C19.1322 28.9531 19.5048 28.8478 19.6908 28.6752C19.9974 28.3841 20.4107 28.0387 20.9309 27.6397C21.4512 27.2407 21.9198 26.9385 22.3356 26.7335C22.4231 26.69 22.5709 26.62 22.7791 26.5228C22.9869 26.4257 23.162 26.3422 23.3044 26.2718C23.4468 26.2017 23.6195 26.1126 23.8216 26.0048C24.0244 25.8967 24.1887 25.797 24.3147 25.7053C24.4406 25.6135 24.569 25.5086 24.7006 25.3897C24.8319 25.2712 24.9168 25.1525 24.9554 25.0338C24.9932 24.9151 25.0074 24.7937 24.9964 24.6697C24.9852 24.5459 24.9197 24.4167 24.799 24.2816ZM15.9944 8.64162C16.027 8.62019 16.0491 8.61203 16.0599 8.61736C16.071 8.6228 16.0929 8.64445 16.1255 8.68214C16.1586 8.71989 16.1884 8.75509 16.2161 8.78745C16.2433 8.81953 16.2815 8.86289 16.3307 8.91673C16.3799 8.97075 16.4319 9.01382 16.4865 9.04619C16.5526 9.08926 16.6318 9.11913 16.7249 9.13523C16.8181 9.15133 16.8893 9.17831 16.9388 9.216C16.9883 9.25369 17.0239 9.31569 17.0453 9.40213C17.067 9.52093 17.0487 9.62856 16.9884 9.72565C16.9278 9.82285 16.8486 9.8661 16.7498 9.85522C16.5527 9.81203 16.3391 9.64222 16.1093 9.34551C15.8796 9.04885 15.841 8.81426 15.9944 8.64162ZM13.9572 2.35522C14.0118 2.28511 14.0447 2.22849 14.0555 2.18542C14.0774 2.12046 14.0801 2.05313 14.0638 1.98302C14.0475 1.9129 14.0528 1.84279 14.0801 1.77268C14.1077 1.70257 14.1707 1.6621 14.2693 1.65133C14.3678 1.65133 14.4993 1.73233 14.6636 1.89409C14.6962 1.91574 14.7483 1.9481 14.8191 1.99118C14.8904 2.03437 14.9396 2.07206 14.967 2.10436C14.9943 2.13656 15.0079 2.16382 15.0079 2.18525C14.9861 2.23909 14.9369 2.27718 14.8605 2.2986C14.7841 2.32003 14.7015 2.33102 14.6141 2.33102C14.5267 2.33102 14.4771 2.33635 14.4663 2.34712C14.3787 2.37954 14.2966 2.428 14.2198 2.49267C14.1432 2.55745 14.083 2.60597 14.0392 2.63833C13.9951 2.67064 13.9514 2.67064 13.9077 2.63833C13.864 2.57355 13.8475 2.5277 13.8585 2.50083C13.8696 2.47397 13.9025 2.42534 13.9572 2.35522ZM6.00659 14.4675C6.083 14.3813 6.13795 14.3112 6.17074 14.2572C6.2036 14.2031 6.23363 14.1303 6.26108 14.0387C6.28846 13.9469 6.31309 13.8794 6.33501 13.8363C6.35705 13.793 6.38996 13.7769 6.43369 13.7876C6.45544 13.7823 6.47178 13.793 6.48311 13.82C6.49393 13.847 6.49945 13.8605 6.49945 13.8605V13.9091C6.49945 13.9254 6.49663 13.9468 6.49117 13.9739C6.48564 14.0011 6.47736 14.0253 6.46654 14.0467C6.45544 14.0684 6.44456 14.1008 6.43369 14.1439C6.42276 14.1869 6.41194 14.2247 6.40078 14.257C6.35705 14.3652 6.28846 14.4621 6.19554 14.5484C6.10239 14.6347 6.03386 14.6725 5.99007 14.6617C5.92437 14.6403 5.93001 14.5752 6.00659 14.4675ZM16.7495 24.4517C16.7276 24.7967 16.6536 25.2824 16.5276 25.9081C16.4016 26.5336 16.3221 26.9491 16.2891 27.1539C16.0591 27.1429 15.9278 27.0593 15.8949 26.9029C15.8622 26.7463 15.8949 26.5443 15.9935 26.296C16.2344 25.5729 16.36 25.0768 16.3712 24.8073C16.3935 24.311 16.3385 24.0305 16.2074 23.9659C16.0864 23.8796 15.9004 24.0415 15.6486 24.4511C15.1663 25.228 14.1973 25.6969 12.7409 25.8592C11.427 26.0318 10.518 25.8376 10.0141 25.2763C9.90458 25.2008 9.79509 25.1875 9.68565 25.2361C9.57616 25.2843 9.50498 25.3358 9.47213 25.3893C9.46131 25.4111 9.47213 25.4433 9.50504 25.4865C9.53789 25.5299 9.58991 25.5944 9.66108 25.6807C9.73226 25.7674 9.78974 25.8534 9.83347 25.94C10.2607 26.6734 10.2225 27.1696 9.71856 27.4285C9.71856 26.9326 9.68024 26.5522 9.60366 26.288C9.52696 26.0237 9.3738 25.7325 9.14371 25.4141C8.91384 25.0959 8.75504 24.8558 8.66752 24.6941C8.99595 24.6619 9.24514 24.5377 9.41494 24.3219C9.58467 24.1061 9.66125 23.8742 9.64491 23.6261C9.62846 23.3779 9.53272 23.1728 9.35746 23.0111C9.2589 22.9141 8.74952 22.5013 7.82966 21.7731C6.90987 21.045 6.3403 20.5568 6.12137 20.3087C6.07736 20.2655 5.94612 20.1576 5.72701 19.985C5.50785 19.8124 5.37091 19.6615 5.31625 19.5319C4.8124 18.4428 4.75774 17.547 5.15193 16.8461L5.21758 16.7652C5.27224 16.7545 5.27776 16.8515 5.23392 17.0566C5.16827 17.3587 5.14646 17.6605 5.16827 17.9627C5.21199 18.6426 5.40918 19.1494 5.75958 19.4836C5.98967 19.7105 6.14836 19.6943 6.23605 19.4353C6.30181 19.3488 6.33185 19.0306 6.32632 18.4802C6.32109 17.9303 6.3292 17.5581 6.35112 17.3637C6.43881 16.7489 6.69894 15.9881 7.13145 15.0823C7.56396 14.1761 7.90636 13.6905 8.1582 13.6259C7.96102 13.313 7.89808 12.9732 7.96931 12.6063C8.04037 12.2395 8.15556 11.9265 8.31424 11.6677C8.47288 11.4089 8.63461 11.1096 8.79871 10.7697C8.96304 10.4299 9.04514 10.1251 9.04514 9.85539C9.04514 9.78 9.05078 9.72599 9.06172 9.69363C9.09451 9.59654 9.23145 9.71516 9.47236 10.0495C9.93231 10.7185 10.2773 11.1123 10.5073 11.231C10.7483 11.3603 11.0164 11.3549 11.3122 11.2147C11.6078 11.0744 11.9719 10.8424 12.4046 10.5189C12.837 10.1954 13.2066 9.95798 13.5133 9.8071C13.5464 9.79616 13.5983 9.7719 13.6697 9.73415C13.7406 9.69663 13.7953 9.66948 13.8335 9.65316C13.8716 9.63706 13.921 9.61286 13.9814 9.58044C14.0412 9.54808 14.0877 9.5211 14.1206 9.49945C14.1535 9.47774 14.1864 9.45348 14.2191 9.4265C14.2517 9.39941 14.2736 9.37266 14.2849 9.34562C14.2958 9.31864 14.3014 9.29444 14.3014 9.27279C14.2793 9.17564 14.2329 9.11624 14.1616 9.09482C14.0903 9.07328 13.9946 9.08666 13.8741 9.13534C13.7536 9.18392 13.6193 9.2487 13.4716 9.32952C13.324 9.4104 13.1598 9.50211 12.979 9.60464C12.7984 9.70717 12.6149 9.80143 12.4288 9.88786C12.2427 9.97424 12.0455 10.0497 11.8374 10.1145C11.6293 10.1791 11.4322 10.2171 11.2461 10.2278C10.7861 10.2386 10.4194 10.1202 10.1456 9.87188C9.9704 9.70989 9.87742 9.60748 9.86632 9.56434C9.85527 9.52132 9.90464 9.51056 10.0141 9.53198C10.6057 9.60753 11.0381 9.61819 11.3119 9.56434C11.5966 9.52132 11.9799 9.39714 12.4618 9.19213C12.5605 9.14906 12.8094 9.04375 13.2095 8.87655C13.609 8.70957 13.9185 8.59355 14.1375 8.52877C14.2692 8.49635 14.3596 8.44517 14.4088 8.37506C14.4579 8.30494 14.4744 8.24016 14.4579 8.18076C14.4416 8.12153 14.4059 8.07574 14.3514 8.04337C14.2306 7.97859 14.1212 8.02184 14.0229 8.17283C13.968 8.26992 13.8528 8.36446 13.6777 8.45605C13.5027 8.54787 13.3409 8.61787 13.1931 8.66638C13.0453 8.71484 12.8564 8.77152 12.6263 8.83619C12.3962 8.90098 12.2705 8.93872 12.2485 8.94949C11.6462 9.13279 11.0877 9.21379 10.5729 9.19213C10.332 9.18148 10.1377 9.14628 9.98991 9.08694C9.84204 9.02777 9.7406 8.95765 9.686 8.87661C9.63116 8.79584 9.54365 8.69331 9.42317 8.56918C9.30257 8.44505 9.16563 8.33992 9.0124 8.25348C8.90291 8.19964 8.86177 8.10255 8.88922 7.96232C8.9166 7.8221 9.00147 7.67632 9.14382 7.52533C9.15475 7.51445 9.26707 7.44717 9.48053 7.32304C9.69405 7.19892 9.84468 7.07213 9.93243 6.94267C10.0308 6.79168 10.2006 6.63514 10.4415 6.47326C10.4525 6.43019 10.4607 6.31156 10.4661 6.11738C10.4716 5.92331 10.4196 5.71292 10.3101 5.48638C10.2006 5.25972 10.0526 5.14659 9.86649 5.14659C9.6036 5.13582 9.41747 5.21126 9.30798 5.37313C9.19848 5.53478 9.14934 5.73446 9.16022 5.97177C9.17132 6.17666 9.22334 6.35724 9.31626 6.51379C9.40941 6.67033 9.49434 6.74861 9.57098 6.74861C9.69135 6.73767 9.72967 6.78069 9.68588 6.87789C9.62023 6.99669 9.53249 7.07236 9.42305 7.10455C9.34618 7.12597 9.26126 7.05326 9.16833 6.88605C9.07518 6.71885 9.00406 6.51668 8.95481 6.27925C8.90562 6.04194 8.88628 5.84237 8.89739 5.68039C8.91914 5.34598 9.00941 5.02501 9.16833 4.71753C9.32725 4.41011 9.55447 4.26172 9.85004 4.27238C10.1567 4.28332 10.4033 4.46684 10.5894 4.82273C10.7758 5.17867 10.8633 5.66435 10.8523 6.2792C10.8853 6.35475 10.9701 6.38173 11.1071 6.36008C11.2437 6.33842 11.4246 6.33565 11.649 6.35191C11.8733 6.36801 12.0349 6.42458 12.1335 6.52172C12.1446 6.52172 12.15 6.44067 12.15 6.27897C11.9529 4.91987 12.4401 4.19705 13.6121 4.11067C13.7869 4.14309 13.9348 4.18362 14.0551 4.23202C14.176 4.28048 14.3042 4.36159 14.4412 4.47478C14.5785 4.58796 14.693 4.75244 14.7862 4.96833C14.8793 5.18434 14.9533 5.45401 15.008 5.77753V6.37617C15.008 6.72135 14.9366 6.91558 14.7942 6.95877C14.5644 7.03421 14.4004 7.0316 14.3019 6.95061C14.2033 6.86956 14.214 6.72679 14.3346 6.52178C14.4441 6.2521 14.4222 5.93901 14.2688 5.58307C14.1156 5.22718 13.8362 5.06531 13.4312 5.09773C13.1573 5.10856 12.9602 5.25422 12.8397 5.53461C12.7192 5.81511 12.6755 6.09023 12.7084 6.35996C12.7412 6.62964 12.8013 6.76986 12.8892 6.78057C12.9548 6.79151 13.1494 6.87772 13.4724 7.0396C13.7959 7.20141 14.0395 7.29845 14.2035 7.33081C14.6306 7.41696 14.8739 7.55186 14.9344 7.73532C14.9946 7.91891 14.97 8.18581 14.8606 8.53636C14.7509 8.88715 14.7182 9.17547 14.7623 9.40213C14.806 9.63973 14.8883 9.85522 15.0088 10.0494C15.1293 10.2437 15.2577 10.4216 15.3948 10.5835C15.5316 10.745 15.6929 11.0473 15.8795 11.4895C16.0654 11.932 16.2351 12.4875 16.3883 13.1563C16.3991 13.1671 16.4401 13.2049 16.5114 13.2696C16.5827 13.3343 16.6536 13.4152 16.7251 13.5123C16.7965 13.6094 16.8812 13.7416 16.9799 13.9088C17.0784 14.0761 17.1854 14.3215 17.3004 14.6452C17.415 14.9688 17.5221 15.3412 17.6205 15.7617C17.7411 16.2583 17.804 16.8349 17.8095 17.4934C17.8151 18.1513 17.8588 18.6017 17.9411 18.8446C18.0234 19.0876 18.2341 19.1873 18.5735 19.144C19.0006 19.1225 19.2747 18.896 19.3946 18.4644C19.7562 17.2129 19.4608 15.7132 18.5078 13.9658C18.1463 13.2861 17.8344 12.8384 17.5713 12.6227C17.9545 12.8384 18.349 13.2428 18.7544 13.8364C19.1596 14.4298 19.4167 14.9855 19.5262 15.503C19.5369 15.5571 19.5672 15.7001 19.6164 15.9318C19.6656 16.1638 19.6931 16.2988 19.6983 16.3365C19.7036 16.3743 19.7259 16.4849 19.7639 16.6682C19.8025 16.8516 19.8214 16.9704 19.8214 17.0243C19.8214 17.0784 19.8267 17.1835 19.8379 17.3399C19.8491 17.4962 19.8462 17.6176 19.8296 17.7039C19.8131 17.7904 19.7969 17.9064 19.7804 18.0517C19.7639 18.1973 19.7367 18.3376 19.6983 18.4726C19.6605 18.6074 19.6193 18.756 19.5754 18.9176C20.1776 19.1765 20.4788 19.4029 20.4788 19.5972C20.249 19.4138 19.9202 19.2925 19.4929 19.2338C19.0656 19.1742 18.6691 19.2308 18.3021 19.4035C17.935 19.5761 17.746 19.8618 17.735 20.2608C17.3408 20.2608 17.0614 20.3578 16.8973 20.5523C16.6565 20.8326 16.5307 21.2128 16.5197 21.6931C16.5087 22.1729 16.5495 22.6964 16.6426 23.2624C16.7361 23.8287 16.7716 24.2249 16.7495 24.4517ZM9.86678 5.69648C9.83387 5.68583 9.80654 5.65324 9.78479 5.59939C9.78479 5.50253 9.83393 5.4645 9.93254 5.48621C9.99831 5.50763 10.0614 5.58862 10.1215 5.72885C10.1817 5.86907 10.1954 6.03094 10.1626 6.21435C10.1626 6.24672 10.1463 6.26304 10.1132 6.26276C9.99261 6.26276 9.94889 6.15496 9.9818 5.93924C10.0145 5.77742 9.97622 5.69648 9.86678 5.69648ZM14.1214 5.95556L14.0888 6.00402C14.0013 6.05787 13.9579 6.06869 13.9579 6.03644C13.9137 5.745 13.8152 5.5778 13.6621 5.53461L13.5963 5.5023C13.5195 5.43752 13.5577 5.39977 13.7109 5.389C13.7437 5.37818 13.793 5.39427 13.8587 5.43746C13.9245 5.48071 13.9847 5.54816 14.0395 5.63986C14.0941 5.73168 14.1214 5.83671 14.1214 5.95556Z"
    fill="white"/>
</svg>
