<svg width="12" height="14" viewBox="0 0 12 14" fill="none" xmlns="http://www.w3.org/2000/svg">
<path d="M0 6H12V14H0V6Z" fill="#E74E62"/>
<path d="M10 4C10 6.20914 8.20914 8 6 8C3.79086 8 2 6.20914 2 4C2 1.79086 3.79086 0 6 0C8.20914 0 10 1.79086 10 4Z" fill="#E74E62"/>
<path d="M2 4H10V9.33333H2V4Z" fill="#E74E62"/>
<path d="M8 4C8 5.10457 7.10457 6 6 6C4.89543 6 4 5.10457 4 4C4 2.89543 4.89543 2 6 2C7.10457 2 8 2.89543 8 4Z" fill="white"/>
<path d="M4 4H8V6H4V4Z" fill="white"/>
</svg>
