<svg width="42" height="55" viewBox="0 0 42 55" fill="none" xmlns="http://www.w3.org/2000/svg">
<mask id="mask0" mask-type="alpha" maskUnits="userSpaceOnUse" x="0" y="0" width="42" height="55">
<path d="M3.64009 29.3967C4.06674 29.5914 4.06674 30.2157 3.64009 30.4133C2.17974 31.0804 1 32.1428 1 32.7326C1 33.523 3.11608 35.0664 5.18635 35.4615V52.4503C5.18635 52.4503 7.13062 54.6065 11.5317 54.6065C15.9328 54.6065 17.8771 52.4503 17.8771 52.4503V36.7443C17.8771 36.0371 18.4527 35.4615 19.1599 35.4615H23.7014C24.4086 35.4615 24.9842 36.0371 24.9842 36.7443V52.4503C24.9842 52.4503 26.9284 54.6065 31.3296 54.6065C35.7307 54.6065 37.6749 52.4503 37.6749 52.4503V35.4615C39.7452 35.0635 41.8613 33.5201 41.8613 32.7326C41.8613 32.1428 40.6816 31.0804 39.2212 30.4133C38.7946 30.2185 38.7946 29.5943 39.2212 29.3967C40.6816 28.7296 41.8613 27.6672 41.8613 27.0774C41.8613 26.287 39.7452 24.7436 37.6749 24.3485V11.1509C37.6749 7.37115 35.3527 3.94648 31.7992 2.6608C29.2679 1.74449 25.8518 1 21.4335 1C17.0152 1 13.5991 1.74449 11.0679 2.6608C7.5086 3.94648 5.18635 7.37115 5.18635 11.1509V24.3485C3.11608 24.7465 1 26.2899 1 27.0774C1 27.6672 2.17974 28.7324 3.64009 29.3967ZM17.8743 22.9683V16.1104C17.8743 14.1861 19.3146 12.4624 21.2359 12.3621C23.2861 12.2562 24.9784 13.8855 24.9784 15.9099V22.9712C24.9784 23.6784 24.4029 24.254 23.6956 24.254H19.1542C18.4498 24.2511 17.8743 23.6756 17.8743 22.9683Z" fill="url(#paint0_linear)" stroke="#E8C96F" stroke-width="0.25" stroke-miterlimit="10"/>
</mask>
<g mask="url(#mask0)">
<path d="M-0.127608 61L-9.34229 3.48333L38.444 -4L47.6577 53.5187L-0.127608 61Z" fill="url(#paint1_linear)"/>
</g>
<defs>
<linearGradient id="paint0_linear" x1="39.1577" y1="55" x2="10.1577" y2="-3.50001" gradientUnits="userSpaceOnUse">
<stop stop-color="#E3B858"/>
<stop offset="0.989682" stop-color="#F7D269"/>
</linearGradient>
<linearGradient id="paint1_linear" x1="23.6106" y1="56.0991" x2="15.118" y2="1.86374" gradientUnits="userSpaceOnUse">
<stop stop-color="#F1BF43"/>
<stop offset="1" stop-color="#FFD65C"/>
</linearGradient>
</defs>
</svg>
