<svg width="26" height="26" viewBox="0 0 26 26" fill="none" xmlns="http://www.w3.org/2000/svg">
<path fill-rule="evenodd" clip-rule="evenodd" d="M13.2749 25.6226C20.299 25.6226 25.9932 19.9284 25.9932 12.9043C25.9932 5.88021 20.299 0.186035 13.2749 0.186035C6.25081 0.186035 0.556641 5.88021 0.556641 12.9043C0.556641 19.9284 6.25081 25.6226 13.2749 25.6226ZM13.4518 12.1908C12.4582 12.1908 7.33939 9.28799 7.33939 9.28799V8.83471C7.33939 8.27307 7.79522 7.81725 8.35787 7.81725H18.5457C19.1089 7.81725 19.5647 8.27307 19.5647 8.83471L19.5566 9.34344C19.5566 9.34344 14.4932 12.1908 13.4518 12.1908ZM19.5566 10.8695C19.5566 10.8695 14.541 13.5896 13.4518 13.5896C12.4582 13.5896 7.34702 10.8695 7.34753 10.8695L7.33939 16.9743C7.33939 17.5359 7.79572 17.9917 8.35787 17.9917H18.5457C19.1089 17.9917 19.5647 17.5359 19.5647 16.9743L19.5566 10.8695Z" fill="#F3CD66"/>
</svg>
