<svg width="26" height="26" viewBox="0 0 26 26" fill="none" xmlns="http://www.w3.org/2000/svg">
<path fill-rule="evenodd" clip-rule="evenodd" d="M12.7183 25.6226C19.7424 25.6226 25.4366 19.9284 25.4366 12.9043C25.4366 5.88021 19.7424 0.186035 12.7183 0.186035C5.69417 0.186035 0 5.88021 0 12.9043C0 19.9284 5.69417 25.6226 12.7183 25.6226ZM10.3867 18.7336C10.6961 18.7336 10.8374 18.596 11.0083 18.4296L11.0226 18.4156L12.5504 16.9301L15.7285 19.2781C16.3133 19.6008 16.7355 19.4337 16.8812 18.7351L18.9675 8.90352C19.1811 8.04714 18.641 7.65872 18.0815 7.91275L5.83063 12.6366C4.99439 12.972 4.99927 13.4386 5.6782 13.6465L8.82205 14.6277L16.1004 10.0359C16.444 9.82753 16.7594 9.93954 16.5005 10.1693L10.6031 15.4912L10.603 15.4913L10.6031 15.4914L10.3867 18.7336Z" fill="#F3CD66"/>
</svg>
