<svg width="27" height="26" viewBox="0 0 27 26" fill="none" xmlns="http://www.w3.org/2000/svg">
<path fill-rule="evenodd" clip-rule="evenodd" d="M13.6197 0.186035C6.59554 0.186035 0.901367 5.88021 0.901367 12.9043C0.901367 19.9284 6.59554 25.6226 13.6197 25.6226C20.6438 25.6226 26.3379 19.9284 26.3379 12.9043C26.3379 5.88021 20.6438 0.186035 13.6197 0.186035ZM13.2655 10.9639L13.2388 10.5239C13.1588 9.38324 13.8616 8.34141 14.9736 7.93726C15.3828 7.79356 16.0767 7.7756 16.5304 7.90133C16.7084 7.95522 17.0464 8.13485 17.2866 8.29651L17.7225 8.59289L18.2029 8.44021C18.4698 8.35938 18.8256 8.22466 18.9858 8.13485C19.137 8.05401 19.2705 8.00911 19.2705 8.03605C19.2705 8.18873 18.9413 8.70965 18.6655 8.99705C18.2919 9.4012 18.3986 9.43713 19.1548 9.16769C19.6085 9.01501 19.6174 9.01501 19.5284 9.18565C19.4751 9.27547 19.1993 9.58981 18.9057 9.87721C18.4075 10.3712 18.3808 10.4251 18.3808 10.8382C18.3808 11.4759 18.0784 12.8051 17.7759 13.5326C17.2154 14.8977 16.0145 16.3078 14.8135 17.0173C13.1232 18.0142 10.8725 18.2657 8.97758 17.6819C8.34595 17.4843 7.26061 16.9814 7.26061 16.8916C7.26061 16.8646 7.58977 16.8287 7.9901 16.8197C8.82634 16.8018 9.66258 16.5682 10.3743 16.1551L10.8547 15.8677L10.3031 15.6791C9.52024 15.4097 8.81744 14.79 8.63952 14.2062C8.58614 14.0176 8.60394 14.0086 9.10212 14.0086L9.6181 13.9996L9.18219 13.793C8.66621 13.5326 8.19471 13.0925 7.96341 12.6434C7.79438 12.3201 7.58087 11.5028 7.64315 11.4399C7.66094 11.413 7.84776 11.4669 8.06127 11.5387C8.6751 11.7633 8.75517 11.7094 8.39932 11.3322C7.73211 10.6496 7.5275 9.63472 7.84776 8.67372L7.999 8.24262L8.58614 8.8264C9.78713 10.0029 11.2016 10.7035 12.8207 10.9101L13.2655 10.9639Z" fill="#F3CD66"/>
</svg>
