<svg width="29" height="28" viewBox="0 0 29 28" fill="none" xmlns="http://www.w3.org/2000/svg">
<path fill-rule="evenodd" clip-rule="evenodd" d="M28.4271 13.9045C28.4271 21.5837 22.2019 27.809 14.5227 27.809C6.84342 27.809 0.618164 21.5837 0.618164 13.9045C0.618164 6.22525 6.84342 0 14.5227 0C22.2019 0 28.4271 6.22525 28.4271 13.9045ZM22.4026 11.4169C23.6802 11.4169 24.7192 12.4516 24.7192 13.7233C24.7192 14.5641 24.2631 15.2987 23.5871 15.701C23.615 15.8931 23.6299 16.0872 23.6299 16.2836C23.6299 19.5632 19.6299 22.2315 14.7136 22.2315C9.79683 22.2315 5.79729 19.5632 5.79729 16.2836C5.79729 16.0719 5.81473 15.8627 5.84711 15.6561C5.21163 15.2449 4.78948 14.533 4.78948 13.7233C4.78948 12.4516 5.82854 11.4171 7.10609 11.4169C7.67363 11.4169 8.1943 11.6226 8.59765 11.9617C10.1359 10.9928 12.1884 10.3845 14.4509 10.3403L15.7737 6.17748C15.8433 5.95606 16.0738 5.82596 16.3007 5.87895L19.7266 6.68142C20.0333 6.03024 20.6962 5.5768 21.4653 5.5768C22.5238 5.5768 23.3855 6.4343 23.3855 7.48863C23.3855 8.54297 22.524 9.40047 21.4653 9.40047C20.4278 9.40047 19.5824 8.57679 19.5482 7.55244L16.4994 6.83768L15.3819 10.354C17.5069 10.4598 19.4259 11.0638 20.8773 11.9921C21.2852 11.6354 21.8183 11.4169 22.4026 11.4169Z" fill="white"/>
<path fill-rule="evenodd" clip-rule="evenodd" d="M23.3429 14.7852C23.017 13.9498 22.4236 13.1857 21.6294 12.5347C21.8522 12.3902 22.1177 12.3054 22.403 12.3054C23.1884 12.3054 23.8273 12.9415 23.8273 13.7235C23.8269 14.1462 23.6389 14.5255 23.3429 14.7852V14.7852Z" fill="white"/>
<path fill-rule="evenodd" clip-rule="evenodd" d="M21.4652 6.46582C22.0321 6.46582 22.4932 6.92512 22.4932 7.48949C22.4932 8.05386 22.0321 8.51294 21.4652 8.51294C20.8981 8.51294 20.437 8.05386 20.437 7.48949C20.437 6.92512 20.8981 6.46582 21.4652 6.46582V6.46582Z" fill="white"/>
<path fill-rule="evenodd" clip-rule="evenodd" d="M14.7137 21.3434C19.1377 21.3434 22.7378 19.0735 22.7378 16.2841C22.7378 16.1901 22.733 16.0972 22.7251 16.0041C22.6993 15.7069 22.6304 15.4167 22.5265 15.1348C22.2626 14.4234 21.7624 13.7691 21.078 13.2079C20.851 13.0214 20.6046 12.8451 20.3394 12.6807C18.8909 11.7808 16.9035 11.2244 14.7137 11.2244C12.5552 11.2244 10.5944 11.7655 9.15059 12.6428C8.88606 12.8036 8.63898 12.9759 8.41092 13.1583C7.6982 13.7281 7.17639 14.3964 6.9044 15.1247C6.79954 15.4056 6.73069 15.6956 6.70374 15.9921C6.69513 16.0888 6.6897 16.1858 6.6897 16.2841C6.6897 19.0737 10.2891 21.3434 14.7137 21.3434ZM11.7794 13.8373C12.532 13.8373 13.1421 14.4657 13.1421 15.2148C13.1421 15.9636 12.532 16.5708 11.7794 16.5717C11.0273 16.5717 10.3961 15.9636 10.3961 15.2148C10.3961 14.4657 11.0271 13.8373 11.7794 13.8373ZM17.75 13.8368C16.9976 13.8368 16.3646 14.465 16.3646 15.214C16.3646 15.9633 16.9976 16.571 17.75 16.571C18.5026 16.571 19.1131 15.9638 19.1131 15.214C19.1127 14.4646 18.5026 13.8368 17.75 13.8368ZM14.7648 19.249C16.0102 19.249 16.8601 19.0052 17.3649 18.5033C17.5396 18.3302 17.8222 18.3302 17.9968 18.5038C18.171 18.6769 18.171 18.9579 17.9964 19.1317C17.316 19.8082 16.2588 20.1376 14.7648 20.1376C14.7628 20.1376 14.761 20.1372 14.7592 20.1369C14.7574 20.1366 14.7557 20.1362 14.7539 20.1362C14.7521 20.1362 14.7505 20.1366 14.7488 20.1369C14.747 20.1372 14.7452 20.1376 14.7433 20.1376C13.249 20.1376 12.192 19.8082 11.5124 19.1313C11.338 18.9583 11.338 18.6772 11.5124 18.5033C11.6865 18.3297 11.9692 18.3297 12.1433 18.5033C12.6475 19.0052 13.4977 19.249 14.7433 19.249C14.7451 19.249 14.7467 19.2492 14.7484 19.2495C14.7502 19.2498 14.752 19.2501 14.7539 19.2501C14.7575 19.2501 14.7609 19.249 14.7648 19.249Z" fill="white"/>
<path fill-rule="evenodd" clip-rule="evenodd" d="M5.68164 13.7235C5.68164 12.9417 6.32053 12.3054 7.10571 12.3054C7.37092 12.3054 7.61868 12.3796 7.83179 12.5061C7.03709 13.1489 6.44237 13.9054 6.10696 14.7322C5.84448 14.475 5.68164 14.118 5.68164 13.7235V13.7235Z" fill="white"/>
</svg>
