<svg width="29" height="28" viewBox="0 0 29 28" fill="none" xmlns="http://www.w3.org/2000/svg">
<path fill-rule="evenodd" clip-rule="evenodd" d="M14.7136 0C7.03433 0 0.809082 6.22525 0.809082 13.9045C0.809082 21.5837 7.03433 27.809 14.7136 27.809C22.3928 27.809 28.6181 21.5837 28.6181 13.9045C28.6181 6.22525 22.3928 0 14.7136 0ZM14.3264 11.7828L14.2972 11.3016C14.2096 10.0546 14.978 8.91564 16.1937 8.47379C16.6411 8.31669 17.3997 8.29705 17.8958 8.43452C18.0903 8.49343 18.4599 8.68981 18.7225 8.86655L19.199 9.19057L19.7242 9.02365C20.016 8.93528 20.405 8.788 20.5801 8.68981C20.7454 8.60144 20.8913 8.55234 20.8913 8.5818C20.8913 8.74872 20.5315 9.31822 20.23 9.63242C19.8215 10.0743 19.9382 10.1136 20.7649 9.81898C21.2609 9.65206 21.2706 9.65206 21.1734 9.83862C21.115 9.93681 20.8135 10.2805 20.4926 10.5947C19.9479 11.1347 19.9187 11.1936 19.9187 11.6453C19.9187 12.3424 19.5881 13.7956 19.2574 14.591C18.6447 16.0835 17.3317 17.625 16.0187 18.4007C14.1707 19.4906 11.7101 19.7655 9.63846 19.1273C8.94793 18.9113 7.76136 18.3614 7.76136 18.2632C7.76136 18.2338 8.12122 18.1945 8.55889 18.1847C9.47312 18.1651 10.3874 17.9098 11.1654 17.4581L11.6906 17.1439L11.0876 16.9377C10.2317 16.6431 9.4634 15.9656 9.26888 15.3274C9.21052 15.1212 9.22998 15.1114 9.77463 15.1114L10.3387 15.1016L9.86216 14.8757C9.29806 14.591 8.78258 14.1098 8.52971 13.6189C8.34492 13.2654 8.1115 12.3719 8.17958 12.3032C8.19903 12.2737 8.40327 12.3326 8.6367 12.4112C9.30778 12.6566 9.39532 12.5977 9.00628 12.1853C8.27684 11.4391 8.05314 10.3296 8.40327 9.27894L8.56861 8.80764L9.21052 9.44586C10.5235 10.7321 12.0699 11.498 13.8401 11.7239L14.3264 11.7828Z" fill="white"/>
</svg>
