<svg width="29" height="28" viewBox="0 0 29 28" fill="none" xmlns="http://www.w3.org/2000/svg">
<path fill-rule="evenodd" clip-rule="evenodd" d="M14.3055 0C6.64149 0 0.426758 6.21421 0.426758 13.8804C0.426758 20.0133 4.40344 25.2163 9.91789 27.0518C10.6115 27.1802 10.8662 26.7506 10.8662 26.384C10.8662 26.053 10.8533 24.9596 10.8473 23.7997C6.98623 24.6394 6.1715 22.162 6.1715 22.162C5.54016 20.5576 4.63051 20.131 4.63051 20.131C3.37129 19.2695 4.72543 19.2872 4.72543 19.2872C6.1191 19.3848 6.85293 20.7176 6.85293 20.7176C8.09078 22.8396 10.0997 22.2261 10.8917 21.8714C11.0162 20.9745 11.3759 20.3617 11.7728 20.0153C8.69016 19.6644 5.44961 18.4741 5.44961 13.1555C5.44961 11.64 5.99177 10.4018 6.87959 9.42969C6.73549 9.07985 6.26044 7.66829 7.01404 5.75633C7.01404 5.75633 8.17949 5.38327 10.8317 7.17915C11.9388 6.8716 13.126 6.71737 14.3055 6.71208C15.485 6.71737 16.6732 6.8716 17.7823 7.17915C20.4313 5.38327 21.5951 5.75633 21.5951 5.75633C22.3506 7.66829 21.8753 9.07985 21.7312 9.42969C22.6211 10.4018 23.1596 11.64 23.1596 13.1555C23.1596 18.4868 19.9128 19.6607 16.8223 20.0043C17.3201 20.4351 17.7637 21.2798 17.7637 22.5748C17.7637 24.4318 17.7476 25.9266 17.7476 26.384C17.7476 26.7534 17.9974 27.1862 18.7009 27.0499C24.2124 25.2124 28.184 20.0112 28.184 13.8804C28.184 6.21421 21.9702 0 14.3055 0" fill="white"/>
<path fill-rule="evenodd" clip-rule="evenodd" d="M5.68321 19.9294C5.65265 19.9986 5.54417 20.0191 5.44534 19.9717C5.34468 19.9264 5.28814 19.8324 5.32078 19.7632C5.35066 19.6922 5.45936 19.6727 5.5598 19.7198C5.66069 19.7653 5.71815 19.8602 5.68321 19.9294" fill="white"/>
<path fill-rule="evenodd" clip-rule="evenodd" d="M6.24551 20.5565C6.17932 20.6179 6.04993 20.5894 5.96213 20.4924C5.87135 20.3956 5.85434 20.2662 5.92145 20.2039C5.98971 20.1425 6.1152 20.1713 6.20621 20.268C6.29699 20.366 6.31469 20.4945 6.24551 20.5565" fill="white"/>
<path fill-rule="evenodd" clip-rule="evenodd" d="M6.79269 21.3559C6.70767 21.415 6.56866 21.3596 6.48272 21.2361C6.39771 21.1127 6.39771 20.9647 6.48456 20.9054C6.57073 20.8461 6.70767 20.8994 6.79476 21.0219C6.87954 21.1472 6.87954 21.2955 6.79269 21.3559" fill="white"/>
<path fill-rule="evenodd" clip-rule="evenodd" d="M7.54234 22.1283C7.46627 22.2122 7.30424 22.1897 7.18565 22.0752C7.0643 21.9633 7.03052 21.8044 7.10682 21.7205C7.18381 21.6364 7.34676 21.6601 7.46627 21.7736C7.5867 21.8853 7.62347 22.0453 7.54234 22.1283" fill="white"/>
<path fill-rule="evenodd" clip-rule="evenodd" d="M8.57664 22.5766C8.54309 22.6853 8.38703 22.7348 8.22983 22.6886C8.07286 22.641 7.97013 22.5136 8.00184 22.4038C8.03448 22.2943 8.19122 22.2429 8.34957 22.2923C8.50631 22.3396 8.60928 22.466 8.57664 22.5766" fill="white"/>
<path fill-rule="evenodd" clip-rule="evenodd" d="M9.71237 22.6599C9.71627 22.7743 9.58297 22.8693 9.41796 22.8711C9.25202 22.875 9.11781 22.7824 9.11597 22.6697C9.11597 22.5541 9.24628 22.4601 9.41221 22.4574C9.57723 22.4541 9.71237 22.5461 9.71237 22.6599" fill="white"/>
<path fill-rule="evenodd" clip-rule="evenodd" d="M10.7695 22.48C10.7892 22.5917 10.6746 22.7064 10.5107 22.7368C10.3496 22.7664 10.2004 22.6974 10.18 22.5867C10.16 22.4722 10.2767 22.3575 10.4376 22.3278C10.6017 22.2993 10.7486 22.3665 10.7695 22.48" fill="white"/>
</svg>
