<svg width="28" height="28" viewBox="0 0 28 28" fill="none" xmlns="http://www.w3.org/2000/svg">
<path fill-rule="evenodd" clip-rule="evenodd" d="M14.0886 27.809C21.7678 27.809 27.9931 21.5837 27.9931 13.9045C27.9931 6.22525 21.7678 0 14.0886 0C6.40933 0 0.184082 6.22525 0.184082 13.9045C0.184082 21.5837 6.40933 27.809 14.0886 27.809ZM14.2823 13.124C13.1961 13.124 7.5998 9.9505 7.5998 9.9505V9.45495C7.5998 8.84093 8.09814 8.34259 8.71328 8.34259H19.8513C20.467 8.34259 20.9654 8.84093 20.9654 9.45495L20.9565 10.0111C20.9565 10.0111 15.4208 13.124 14.2823 13.124ZM20.9565 11.6797C20.9565 11.6797 15.4731 14.6535 14.2823 14.6535C13.1961 14.6535 7.60815 11.6797 7.6087 11.6797L7.5998 18.3539C7.5998 18.9679 8.0987 19.4662 8.71328 19.4662H19.8513C20.467 19.4662 20.9654 18.9679 20.9654 18.3539L20.9565 11.6797Z" fill="white"/>
</svg>
