<svg width="48" height="48" viewBox="0 0 48 48" fill="none" xmlns="http://www.w3.org/2000/svg">
<path d="M24 3C22.4035 3 20.8702 3.63101 19.7407 4.76683L13.4621 11.0391H13.4684L4.76683 19.7407C3.63101 20.8702 3 22.4035 3 24C3 25.5965 3.63101 27.1298 4.76683 28.2593L8.78005 32.2788L9.92218 33.4147L19.7407 43.2332C20.8702 44.369 22.4035 45 24 45C25.5965 45 27.1361 44.369 28.2656 43.2269L38.0904 33.4084V33.402L43.2332 28.2656H43.2395C44.3501 27.1424 44.9937 25.628 45 24.0379C45.0126 22.4225 44.369 20.8765 43.2332 19.7407L40.4441 16.9516H40.4378L34.5505 11.0517L28.2656 4.76683C27.1361 3.63101 25.5965 3 24 3ZM24 6.23077C24.7572 6.23077 25.445 6.51472 25.9751 7.05108H25.9814L29.982 11.0517L24.0126 17.0273L18.037 11.0391L22.0313 7.05108V7.04477C22.5613 6.50841 23.2365 6.23077 24 6.23077ZM15.7464 13.3233L21.7284 19.3116L11.0643 29.9883L7.05108 25.9688H7.04477C6.50841 25.4387 6.23077 24.7635 6.23077 24C6.23077 23.2428 6.50841 22.5613 7.05108 22.0312L15.7464 13.3233ZM32.2599 13.3359L38.1409 19.2233L32.14 25.1547L26.2969 19.3053L32.2599 13.3359ZM40.4315 21.5012L40.9552 22.0312C41.4979 22.5676 41.7755 23.2491 41.7692 24.0126V24.0252C41.7692 24.7698 41.4853 25.445 40.9489 25.9877L36.9483 29.9757L34.4243 27.439L40.4315 21.5012ZM24.0126 21.5959L34.6704 32.2536L25.9688 40.9552C25.445 41.4853 24.7572 41.7692 24 41.7692C23.2365 41.7692 22.5613 41.4916 22.0313 40.9552L13.3486 32.2725L24.0126 21.5959Z" fill="url(#paint0_linear)"/>
<defs>
<linearGradient id="paint0_linear" x1="24.0001" y1="3" x2="24.0001" y2="45" gradientUnits="userSpaceOnUse">
<stop stop-color="#FED96E"/>
<stop offset="1" stop-color="#F3C85B"/>
</linearGradient>
</defs>
</svg>
