<svg width="42" height="42" viewBox="0 0 42 42" fill="none" xmlns="http://www.w3.org/2000/svg">
<path d="M38.5932 0C37.4619 0 35.8856 0.0508475 34.2203 0.20339C30.8898 0.51483 27.0445 1.07415 24.661 3.45763C22.6589 5.45975 18.5212 10.7733 14.6949 15.7627C13.9386 16.7479 13.9703 16.7288 13.2712 17.6441L10.4746 17.4915C8.39619 17.3835 6.39407 18.2606 5.08475 19.8814L1.67797 24.0508L0 26.1864L2.64407 26.6949L7.98305 27.7627L14.2373 34.0169L15.3051 39.3559L15.8644 42L17.9492 40.322L22.1186 36.9153C23.7394 35.6059 24.6165 33.6038 24.5085 31.5254L24.3559 28.7797C25.303 28.0614 25.2712 28.0805 26.2881 27.3051C31.2903 23.4725 36.6229 19.3602 38.5932 17.3898C40.9576 15.0254 41.4852 11.1229 41.7966 7.77966C42.1081 4.43644 41.9492 1.57627 41.9492 1.57627L41.8983 0.101695L40.4237 0.0508475C40.4237 0.0508475 39.7246 0 38.5932 0ZM37.1186 3.25424C37.7669 3.25424 38.2246 3.29237 38.6949 3.30508C38.714 4.25212 38.7521 5.23729 38.5424 7.47458C38.2564 10.5572 37.3157 13.9894 36.2542 15.0508C34.8051 16.5 29.2881 20.8919 24.3051 24.7119C19.9004 28.0869 16.7987 30.4576 15.9153 31.1186L10.9322 26.1356C11.5996 25.2394 13.8814 22.125 17.2373 17.7458C21.0508 12.7754 25.4555 7.23941 26.9492 5.74576C28.0614 4.63347 31.4555 3.6928 34.5254 3.40678C35.6377 3.30508 36.4703 3.25424 37.1186 3.25424ZM29.6949 9C27.8771 9 26.4407 10.4873 26.4407 12.3051C26.4407 14.1229 27.8771 15.6102 29.6949 15.6102C31.5127 15.6102 33 14.1229 33 12.3051C33 10.4873 31.5127 9 29.6949 9ZM10.2712 20.7458L10.8814 20.7966C9.90254 22.0932 8.30085 24.1716 8.08475 24.4576L5.89831 24L7.57627 21.9661C8.23093 21.1589 9.22881 20.6886 10.2712 20.7458ZM6.55932 29.1864C5.16737 30.5784 4.37288 32.5042 3.81356 34.1186C3.25424 35.7331 3 37.0678 3 37.0678L2.49153 39.4576L4.88136 39C4.88136 39 6.17797 38.7775 7.77966 38.2373C9.38136 37.697 11.3072 36.8962 12.7627 35.4407L10.4746 33.1525C9.75 33.8771 8.31356 34.5127 7.01695 34.9831C7.51271 33.6292 8.23729 32.0911 8.84746 31.4746L6.55932 29.1864ZM21.2034 31.1186L21.2542 31.7288C21.3114 32.7712 20.8983 33.7691 20.0847 34.4237L18 36.1017L17.5424 33.9153C17.8284 33.7055 19.9068 32.0911 21.2034 31.1186Z" fill="url(#paint0_linear)"/>
<defs>
<linearGradient id="paint0_linear" x1="20.9948" y1="0" x2="20.9948" y2="42" gradientUnits="userSpaceOnUse">
<stop stop-color="#FCD56A"/>
<stop offset="1" stop-color="#F3C85B"/>
</linearGradient>
</defs>
</svg>
