<svg width="28" height="42" viewBox="0 0 28 42" fill="none" xmlns="http://www.w3.org/2000/svg">
<path d="M14 6.10352e-05L12.8022 0.840061C12.8022 0.840061 10.4566 2.55094 8.06814 4.89183C5.67972 7.23271 3.04889 10.1727 3.04889 13.4401C3.04889 15.6821 3.68342 18.8692 4.41777 21.9883L3.16296 22.7295C0.774533 24.1624 -0.430375 26.6824 0.139996 29.153L1.28074 33.9954L1.79407 36.3177L4.07555 35.033L9.09481 32.1177H18.9052L23.9244 35.033L26.2059 36.3177L26.7193 33.9954L27.86 29.153C28.4304 26.6824 27.2255 24.1624 24.837 22.7295L23.5822 21.9883C24.3237 18.8568 24.9511 15.6574 24.9511 13.4401C24.9511 10.1974 22.3203 7.29447 19.9319 4.94124C17.5434 2.588 15.1407 0.840061 15.1407 0.840061L14 6.10352e-05ZM14 4.29888C14.7486 4.8733 15.6042 5.44771 17.1941 7.01653C19.3757 9.16594 21.3007 11.9762 21.3007 13.4401C21.3007 15.4412 20.4381 19.7648 19.5326 23.4212C18.784 26.4292 18.292 28.1215 18.0496 28.9554H9.95037C9.70796 28.1277 9.20889 26.4601 8.4674 23.4706C7.56194 19.8327 6.69926 15.4968 6.69926 13.4401C6.69926 11.9021 8.63852 9.14741 10.8059 7.01653C12.403 5.44771 13.2656 4.86094 14 4.29888ZM14 12.6495C11.9609 12.6495 10.2926 14.0948 10.2926 15.8612C10.2926 17.6277 11.9609 19.0236 14 19.0236C16.0391 19.0236 17.7074 17.6277 17.7074 15.8612C17.7074 14.0948 16.0391 12.6495 14 12.6495ZM5.21629 25.2989C5.75102 27.3989 6.15027 28.8689 6.41407 29.7954L4.3037 31.0307L3.73333 28.5601C3.44814 27.3186 4.01852 26.0215 5.21629 25.2989ZM22.7267 25.2989H22.7837C23.9815 26.0215 24.5519 27.3186 24.2667 28.5601L23.6963 31.0307L21.5859 29.7954C21.8426 28.8689 22.1919 27.3865 22.7267 25.2989ZM8.52444 33.6989C8.52444 38.4671 12.8593 41.2589 12.8593 41.2589L14 42.0001L15.0837 41.3083C15.0837 41.3083 19.4756 38.4918 19.4756 33.6989H15.8252C15.8252 35.6383 14.8556 36.9045 14 37.7507C13.1444 36.8921 12.1748 35.6074 12.1748 33.6989H8.52444Z" fill="url(#paint0_linear)"/>
<defs>
<linearGradient id="paint0_linear" x1="14" y1="6.10352e-05" x2="14" y2="42.0001" gradientUnits="userSpaceOnUse">
<stop stop-color="#FEDA6F"/>
<stop offset="1" stop-color="#F3C85B"/>
</linearGradient>
</defs>
</svg>
