<svg width="41" height="42" viewBox="0 0 41 42" fill="none" xmlns="http://www.w3.org/2000/svg">
<path d="M20.9583 6.10352e-05C16.8673 6.10352e-05 14.1117 1.54779 11.6401 2.83642C9.16848 4.12506 6.92416 5.23642 2.77643 5.23642H0.958252V6.98188C0.958252 20.4546 5.70257 29.2228 10.5037 34.5273C15.3048 39.8319 20.2764 41.7819 20.2764 41.7819L20.9583 42.0001L21.6401 41.7819C21.6401 41.7819 26.6117 39.8728 31.4128 34.5819C36.2139 29.291 40.9583 20.5023 40.9583 6.98188V5.23642H39.1401C35.0136 5.23642 32.748 4.12506 30.2764 2.83642C27.8048 1.54779 25.0492 6.10352e-05 20.9583 6.10352e-05ZM20.9583 3.49097C24.1401 3.49097 25.9654 4.56142 28.5151 5.89097C30.6671 7.01597 33.5222 8.09324 37.2083 8.45461C36.8602 20.2637 32.7906 27.7705 28.6855 32.291C24.9639 36.3887 21.8389 37.7523 20.9583 38.1273C20.0705 37.7455 16.9526 36.3478 13.231 32.2364C9.12587 27.7023 5.05626 20.2092 4.70825 8.45461C8.40854 8.09324 11.2494 7.01597 13.4014 5.89097C15.9511 4.56142 17.7764 3.49097 20.9583 3.49097Z" fill="url(#paint0_linear)"/>
<defs>
<linearGradient id="paint0_linear" x1="20.9583" y1="6.10352e-05" x2="20.9583" y2="42.0001" gradientUnits="userSpaceOnUse">
<stop stop-color="#FDD96E"/>
<stop offset="1" stop-color="#F3C85B"/>
</linearGradient>
</defs>
</svg>
