<svg width="50" height="50" viewBox="0 0 50 50" fill="none" xmlns="http://www.w3.org/2000/svg">
<g clip-path="url(#clip0)">
<path d="M38.1953 3.00042C37.9287 3.00725 37.6484 3.04143 37.375 3.10979L8.9375 10.602C6.64062 11.2035 5 13.309 5 15.6879V39.7504C5 42.6283 7.37207 45.0004 10.25 45.0004H41.75C44.6279 45.0004 47 42.6283 47 39.7504V17.0004C47 14.1225 44.6279 11.7504 41.75 11.7504H18.3438L38.25 6.50042V10.0004H41.75V6.50042C41.75 4.53167 40.0752 2.97307 38.1953 3.00042ZM10.25 15.2504H41.75C42.7412 15.2504 43.5 16.0092 43.5 17.0004V39.7504C43.5 40.7416 42.7412 41.5004 41.75 41.5004H10.25C9.25879 41.5004 8.5 40.7416 8.5 39.7504V17.0004C8.5 16.0092 9.25879 15.2504 10.25 15.2504ZM37.375 25.7504C35.9258 25.7504 34.75 26.9262 34.75 28.3754C34.75 29.8246 35.9258 31.0004 37.375 31.0004C38.8242 31.0004 40 29.8246 40 28.3754C40 26.9262 38.8242 25.7504 37.375 25.7504Z" fill="url(#paint0_linear)"/>
</g>
<defs>
<linearGradient id="paint0_linear" x1="26" y1="3.00006" x2="26" y2="45.0004" gradientUnits="userSpaceOnUse">
<stop stop-color="#FDD86D"/>
<stop offset="1" stop-color="#F3C85B"/>
</linearGradient>
<clipPath id="clip0">
<rect y="6.10352e-05" width="50" height="50" fill="white"/>
</clipPath>
</defs>
</svg>
