<svg width="42" height="30" viewBox="0 0 42 30" fill="none" xmlns="http://www.w3.org/2000/svg">
<path d="M14.25 3.05176e-05C11.3672 3.05176e-05 9 2.36722 9 5.25003C9 8.13284 11.3672 10.5 14.25 10.5C17.1328 10.5 19.5 8.13284 19.5 5.25003C19.5 2.36722 17.1328 3.05176e-05 14.25 3.05176e-05ZM27.75 3.05176e-05C24.8672 3.05176e-05 22.5 2.36722 22.5 5.25003C22.5 8.13284 24.8672 10.5 27.75 10.5C30.6328 10.5 33 8.13284 33 5.25003C33 2.36722 30.6328 3.05176e-05 27.75 3.05176e-05ZM14.25 3.00003C15.5098 3.00003 16.5 3.99026 16.5 5.25003C16.5 6.5098 15.5098 7.50003 14.25 7.50003C12.9902 7.50003 12 6.5098 12 5.25003C12 3.99026 12.9902 3.00003 14.25 3.00003ZM27.75 3.00003C29.0098 3.00003 30 3.99026 30 5.25003C30 6.5098 29.0098 7.50003 27.75 7.50003C26.4902 7.50003 25.5 6.5098 25.5 5.25003C25.5 3.99026 26.4902 3.00003 27.75 3.00003ZM7.5 9.00003C4.20117 9.00003 1.5 11.7012 1.5 15C1.5 16.67 2.21484 18.1758 3.32812 19.2657C1.33008 20.6192 0 22.9219 0 25.5H3C3 22.9981 4.99805 21 7.5 21C10.002 21 12 22.9981 12 25.5H15C15 22.9219 13.6699 20.6192 11.6719 19.2657C12.7852 18.1758 13.5 16.67 13.5 15C13.5 11.7012 10.7988 9.00003 7.5 9.00003ZM15 25.5C14.0625 26.7539 13.5 28.3301 13.5 30H16.5C16.5 27.4981 18.498 25.5 21 25.5C23.502 25.5 25.5 27.4981 25.5 30H28.5C28.5 28.3301 27.9375 26.7539 27 25.5C26.4902 24.8203 25.875 24.2403 25.1719 23.7657C26.2852 22.6758 27 21.17 27 19.5C27 16.2012 24.2988 13.5 21 13.5C17.7012 13.5 15 16.2012 15 19.5C15 21.17 15.7148 22.6758 16.8281 23.7657C16.125 24.2403 15.5098 24.8203 15 25.5ZM27 25.5H30C30 22.9981 31.998 21 34.5 21C37.002 21 39 22.9981 39 25.5H42C42 22.9219 40.6699 20.6192 38.6719 19.2657C39.7852 18.1758 40.5 16.67 40.5 15C40.5 11.7012 37.7988 9.00003 34.5 9.00003C31.2012 9.00003 28.5 11.7012 28.5 15C28.5 16.67 29.2148 18.1758 30.3281 19.2657C28.3301 20.6192 27 22.9219 27 25.5ZM7.5 12C9.17578 12 10.5 13.3242 10.5 15C10.5 16.6758 9.17578 18 7.5 18C5.82422 18 4.5 16.6758 4.5 15C4.5 13.3242 5.82422 12 7.5 12ZM34.5 12C36.1758 12 37.5 13.3242 37.5 15C37.5 16.6758 36.1758 18 34.5 18C32.8242 18 31.5 16.6758 31.5 15C31.5 13.3242 32.8242 12 34.5 12ZM21 16.5C22.6758 16.5 24 17.8242 24 19.5C24 21.1758 22.6758 22.5 21 22.5C19.3242 22.5 18 21.1758 18 19.5C18 17.8242 19.3242 16.5 21 16.5Z" fill="url(#paint0_linear)"/>
<defs>
<linearGradient id="paint0_linear" x1="21" y1="3.05176e-05" x2="21" y2="30" gradientUnits="userSpaceOnUse">
<stop stop-color="#FCD76C"/>
<stop offset="1" stop-color="#F3C85B"/>
</linearGradient>
</defs>
</svg>
