<svg width="42" height="42" viewBox="0 0 42 42" fill="none" xmlns="http://www.w3.org/2000/svg">
<path d="M21 6.10352e-05C9.41992 6.10352e-05 0 9.41998 0 21.0001C0 32.5801 9.41992 42.0001 21 42.0001C32.5801 42.0001 42 32.5801 42 21.0001C42 9.41998 32.5801 6.10352e-05 21 6.10352e-05ZM21 3.50006C30.0918 3.50006 37.5361 10.3907 38.418 19.2501H29.75V22.7501H38.418C38.0693 26.2774 36.6748 29.4903 34.5557 32.0811L29.3877 26.9131C29.0391 28.0958 28.4512 29.1964 27.6514 30.1329L32.0811 34.5557C29.0664 37.0235 25.2109 38.5001 21 38.5001C11.3135 38.5001 3.5 30.6866 3.5 21.0001C3.5 16.7891 4.97656 12.9337 7.44434 9.91901L12.6123 15.087C12.9609 13.9044 13.5488 12.8038 14.3486 11.8672L9.91895 7.4444C12.9336 4.97662 16.7891 3.50006 21 3.50006ZM19.25 10.5001V12.5782C18.9971 12.6739 18.751 12.7833 18.5117 12.9131C18.2793 13.043 18.0537 13.1866 17.8486 13.3438C17.6367 13.501 17.4385 13.6788 17.2539 13.8633C16.8779 14.2462 16.5635 14.67 16.3242 15.1485C16.2012 15.3809 16.0918 15.627 16.0098 15.8868C15.8389 16.3926 15.75 16.9327 15.75 17.5001C15.75 17.8555 15.791 18.211 15.8594 18.546C15.9277 18.8878 16.0303 19.2159 16.167 19.5303C16.3037 19.8448 16.4678 20.1456 16.6523 20.4258C17.0352 20.9796 17.5205 21.4649 18.0742 21.8477C18.6348 22.2237 19.2705 22.4971 19.9541 22.6407C20.2891 22.709 20.6445 22.7501 21 22.7501C21.499 22.7501 21.9365 22.9415 22.251 23.2491C22.5586 23.5635 22.75 24.001 22.75 24.5001C22.75 25.2452 22.3262 25.8604 21.6904 26.1133C21.4854 26.2022 21.2461 26.2501 21 26.2501C20.7539 26.2501 20.5146 26.2022 20.3096 26.1133C20.0977 26.0313 19.9062 25.9014 19.749 25.751C19.4414 25.4366 19.25 24.9991 19.25 24.5001H15.75C15.75 24.7803 15.7773 25.0606 15.8184 25.3272C15.9072 25.8741 16.0781 26.3799 16.3242 26.8516C16.4404 27.0909 16.584 27.3165 16.7344 27.5284C17.0488 27.959 17.4248 28.335 17.8486 28.6563C18.2656 28.9776 18.7441 29.2374 19.25 29.4219V31.5001H22.75V29.4219C24.5273 28.7725 25.874 27.2208 26.1816 25.3272C26.2227 25.0606 26.25 24.7803 26.25 24.5001C26.25 23.7823 26.0996 23.0987 25.833 22.4698C25.6963 22.1553 25.5322 21.8546 25.3477 21.5743C25.1562 21.3008 24.9375 21.0342 24.6982 20.8018C24.4658 20.5626 24.1992 20.3438 23.9258 20.1524C23.6455 19.9678 23.3447 19.8038 23.0303 19.6671C22.7158 19.5303 22.3877 19.4278 22.0459 19.3594C21.7109 19.2911 21.3555 19.2501 21 19.2501C20.501 19.2501 20.0635 19.0587 19.749 18.751C19.5986 18.5938 19.4688 18.4024 19.3867 18.1905C19.2979 17.9854 19.25 17.7462 19.25 17.5001C19.25 17.254 19.2979 17.0147 19.3867 16.8096C19.5576 16.3858 19.8857 16.0577 20.3096 15.8868C20.5146 15.7979 20.7539 15.7501 21 15.7501C21.998 15.7501 22.75 16.502 22.75 17.5001H26.25C26.25 17.2198 26.2227 16.9395 26.1816 16.6729C26.1406 16.3995 26.0723 16.1397 25.9902 15.8868C25.4844 14.3555 24.2744 13.1319 22.75 12.5782V10.5001H19.25Z" fill="url(#paint0_linear)"/>
<defs>
<linearGradient id="paint0_linear" x1="21" y1="6.10352e-05" x2="21" y2="42.0001" gradientUnits="userSpaceOnUse">
<stop stop-color="#FCD66B"/>
<stop offset="1" stop-color="#F3C85B"/>
</linearGradient>
</defs>
</svg>
