<svg width="42" height="30" viewBox="0 0 42 30" fill="none" xmlns="http://www.w3.org/2000/svg">
<path d="M0 6.10352e-05V30.0001H42V6.10352e-05H0ZM3 3.00006H5.73047C5.2793 4.2774 4.27734 5.27936 3 5.73053V3.00006ZM8.84766 3.00006H33.1523C33.7559 5.92389 36.0762 8.2442 39 8.84772V21.1524C36.0762 21.7559 33.7559 24.0762 33.1523 27.0001H8.84766C8.24414 24.0762 5.92383 21.7559 3 21.1524V8.84772C5.92383 8.2442 8.24414 5.92389 8.84766 3.00006ZM36.2754 3.00006H39V5.73053C37.7227 5.27936 36.7207 4.2774 36.2754 3.00006ZM19.5 4.50006V6.05865C17.8125 6.3399 16.5 7.81647 16.5 9.57428V11.0743H16.9277C17.2148 11.5723 17.6309 11.9942 18.1641 12.2579L22.5 14.4258C22.4941 14.7598 22.2598 15.0001 21.9258 15.0001H20.0742C19.7402 15.0001 19.5 14.7598 19.5 14.4258V13.5001H16.5V14.4258C16.5 16.1837 17.8125 17.6602 19.5 17.9415V19.5001H22.5V17.9356C23.5781 17.7247 24.3691 16.9102 24.873 15.9258H25.5V14.4258C25.5 13.295 24.8555 12.252 23.8418 11.7422L19.5 9.56842C19.5059 9.2403 19.7402 9.00006 20.0742 9.00006H21.9258C22.2598 9.00006 22.5 9.2403 22.5 9.57428V10.5001H25.5V9.57428C25.5 7.81647 24.1875 6.3399 22.5 6.05865V4.50006H19.5ZM7.5 9.00006V15.0001H13.5V9.00006H7.5ZM28.5 9.00006V15.0001H34.5V9.00006H28.5ZM10.5 21.0001V24.0001H31.5V21.0001H10.5ZM3 24.2755C4.27734 24.7208 5.2793 25.7227 5.73047 27.0001H3V24.2755ZM39 24.2755V27.0001H36.2754C36.7207 25.7227 37.7227 24.7208 39 24.2755Z" fill="url(#paint0_linear)"/>
<defs>
<linearGradient id="paint0_linear" x1="21" y1="6.10352e-05" x2="21" y2="30.0001" gradientUnits="userSpaceOnUse">
<stop stop-color="#FCD66B"/>
<stop offset="1" stop-color="#F3C85B"/>
</linearGradient>
</defs>
</svg>
