<svg width="40" height="40" viewBox="0 0 40 40" fill="none" xmlns="http://www.w3.org/2000/svg">
<path d="M14.1667 0C10.0456 0 6.66667 3.37891 6.66667 7.5C6.66667 7.77995 6.6862 8.0599 6.71875 8.33333H5C2.25911 8.33333 0 10.5924 0 13.3333V35C0 37.7409 2.25911 40 5 40H35C37.7409 40 40 37.7409 40 35V13.3333C40 10.5924 37.7409 8.33333 35 8.33333H31.582C31.1589 4.60286 28.0013 1.66667 24.1667 1.66667C22.6172 1.66667 21.2435 2.2526 20.0456 3.0599C18.6719 1.25 16.6016 0 14.1667 0ZM14.1667 3.33333C16.4844 3.33333 18.3333 5.18229 18.3333 7.5C18.3333 7.78646 18.3008 8.06641 18.2487 8.33333H10.0977C10.0391 8.06641 10 7.78646 10 7.5C10 5.18229 11.849 3.33333 14.1667 3.33333ZM24.1667 5C26.2044 5 27.8711 6.41927 28.2487 8.33333H21.5885C21.6211 8.05338 21.6667 7.78646 21.6667 7.5C21.6667 7.01823 21.4779 6.59505 21.3867 6.13281C22.1289 5.46224 23.0794 5 24.1667 5ZM5 11.6667H35C35.944 11.6667 36.6667 12.3893 36.6667 13.3333V35C36.6667 35.944 35.944 36.6667 35 36.6667H5C4.05599 36.6667 3.33333 35.944 3.33333 35V13.3333C3.33333 12.3893 4.05599 11.6667 5 11.6667ZM30.8333 21.6667C29.4531 21.6667 28.3333 22.7865 28.3333 24.1667C28.3333 25.5469 29.4531 26.6667 30.8333 26.6667C32.2135 26.6667 33.3333 25.5469 33.3333 24.1667C33.3333 22.7865 32.2135 21.6667 30.8333 21.6667Z" fill="url(#paint0_linear)"/>
<defs>
<linearGradient id="paint0_linear" x1="20" y1="0" x2="20" y2="40" gradientUnits="userSpaceOnUse">
<stop stop-color="#FCD56A"/>
<stop offset="1" stop-color="#F3C85B"/>
</linearGradient>
</defs>
</svg>
