<svg width="40" height="42" viewBox="0 0 40 42" fill="none" xmlns="http://www.w3.org/2000/svg">
<path d="M35.0814 0L8.58244 9.46895L0 33.4946V42H3.28908V35.1392L9.73876 33.8865L15.4561 39.6039C15.4625 39.6039 15.4625 39.6103 15.469 39.6167C15.9829 40.1306 16.6767 40.3298 17.242 40.3555C17.8137 40.3747 18.3276 40.2719 18.8544 40.1049C19.8951 39.7837 20.9936 39.2056 22.227 38.4218C24.6938 36.8544 27.6296 34.439 30.5846 31.4775C33.546 28.5161 35.9615 25.5803 37.5353 23.1135C38.3191 21.8801 38.8908 20.7816 39.2184 19.7409C39.379 19.2141 39.4882 18.7066 39.4625 18.1349C39.4368 17.5632 39.2377 16.8758 38.7238 16.3619C38.7238 16.3619 38.7302 16.3619 38.7238 16.3555L32.9358 10.561L35.0814 0ZM30.7002 5.0621L29.8651 9.14775C29.5182 9.1863 29.1842 9.25054 28.8501 9.35332C27.8094 9.67452 26.7109 10.2527 25.4775 11.0364C23.0171 12.5974 20.0749 15.0128 17.1006 17.9872C14.1263 20.9615 11.7109 23.9036 10.1499 26.364C9.36617 27.5974 8.78801 28.6959 8.46681 29.7366C8.3576 30.0964 8.29336 30.4561 8.26124 30.8223L4.16274 31.6188L11.152 12.0385L30.7002 5.0621ZM30.1478 12.4304L34.1049 16.3812C33.4304 16.7024 32.7302 17.0685 31.9722 17.5567C29.5054 19.1242 26.5696 21.5396 23.6146 24.5011C20.6531 27.4625 18.2377 30.3983 16.6702 32.8587C16.182 33.6167 15.8158 34.3169 15.4946 34.9914L11.5439 31.0343C11.5503 30.9572 11.5503 30.8994 11.6081 30.7066C11.7816 30.1349 12.2377 29.2099 12.9251 28.1306C14.2934 25.9722 16.5867 23.152 19.4261 20.3126C22.2655 17.4732 25.0792 15.1799 27.2377 13.8116C28.3233 13.1242 29.2484 12.6681 29.8201 12.4946C30.0128 12.4368 30.0707 12.4368 30.1478 12.4304ZM35.8201 19.2655C35.5953 19.8373 35.3126 20.4797 34.7602 21.3469C33.3854 23.5182 31.0857 26.3319 28.2655 29.152C25.439 31.9722 22.6317 34.2655 20.4604 35.6467C19.5931 36.1991 18.9508 36.4818 18.379 36.7066C18.6103 36.1413 18.8865 35.4989 19.4454 34.6253C20.8201 32.4604 23.1135 29.6467 25.9336 26.8266C28.7602 24.0064 31.5739 21.7066 33.7388 20.3319C34.6124 19.773 35.2548 19.4968 35.8201 19.2655Z" fill="url(#paint0_linear)"/>
<defs>
<linearGradient id="paint0_linear" x1="19.7331" y1="0" x2="19.7331" y2="42" gradientUnits="userSpaceOnUse">
<stop stop-color="#FCD66B"/>
<stop offset="1" stop-color="#F3C85B"/>
</linearGradient>
</defs>
</svg>
