<svg width="18" height="32" viewBox="0 0 18 32" fill="none" xmlns="http://www.w3.org/2000/svg">
<path d="M16.9688 27.5653V30.3438C16.9688 30.9282 16.4907 31.4062 15.9062 31.4062H2.09375C1.50932 31.4062 1.03125 30.9282 1.03125 30.3438V27.5653C1.03125 27.0286 1.42969 26.5773 1.96094 26.508L5.28125 26.0938V15.4688L1.96094 15.0545C1.42969 14.9852 1.03125 14.5339 1.03125 13.9972V11.2188C1.03125 10.6343 1.50932 10.1562 2.09375 10.1562H11.6562C12.2407 10.1562 12.7188 10.6343 12.7188 11.2188V26.0938L16.0391 26.508C16.5703 26.5773 16.9688 27.0286 16.9688 27.5653Z" fill="#F3CD66"/>
<path d="M8.46875 0.59375C6.41483 0.59375 4.75 2.25858 4.75 4.3125C4.75 6.36642 6.41483 8.03125 8.46875 8.03125C10.5227 8.03125 12.1875 6.36642 12.1875 4.3125C12.1875 2.25858 10.5227 0.59375 8.46875 0.59375ZM16.9688 30.3438C16.9688 30.9282 16.4907 31.4062 15.9062 31.4062H2.09375C1.50932 31.4062 1.03125 30.9282 1.03125 30.3438C1.03125 29.4618 1.74304 28.75 2.625 28.75H15.375C16.257 28.75 16.9688 29.4618 16.9688 30.3438Z" fill="#DAB656"/>
<path d="M12.1875 4.3125H4.75C4.75 2.2565 6.41275 0.59375 8.46875 0.59375C10.5247 0.59375 12.1875 2.2565 12.1875 4.3125Z" fill="#F3CD66"/>
<path d="M16.1039 25.9817L13.25 25.6248V11.2188C13.25 10.3402 12.5348 9.625 11.6562 9.625H2.09375C1.21516 9.625 0.5 10.3402 0.5 11.2188V13.9993C0.5 14.8016 1.10025 15.4815 1.89609 15.5808L4.75 15.9377V25.6248L1.89609 25.9817C1.10025 26.081 0.5 26.7609 0.5 27.5632V30.3438C0.5 31.2223 1.21516 31.9375 2.09375 31.9375H15.9062C16.7848 31.9375 17.5 31.2223 17.5 30.3438V27.5632C17.5 26.7609 16.8997 26.081 16.1039 25.9817ZM16.4375 30.3438C16.4375 30.6364 16.1989 30.875 15.9062 30.875H2.09375C1.80115 30.875 1.5625 30.6364 1.5625 30.3438V27.5632C1.5625 27.2961 1.76224 27.0691 2.02786 27.0361L5.34714 26.6214C5.61328 26.5879 5.8125 26.3615 5.8125 26.0938V15.4688C5.8125 15.201 5.61328 14.9746 5.34714 14.9417L2.02786 14.5269C1.76224 14.4934 1.5625 14.267 1.5625 13.9993V11.2188C1.5625 10.9261 1.80115 10.6875 2.09375 10.6875H11.6562C11.9489 10.6875 12.1875 10.9261 12.1875 11.2188V26.0938C12.1875 26.3615 12.3867 26.5879 12.6529 26.6208L15.9721 27.0356C16.2378 27.0686 16.4375 27.2955 16.4375 27.5627V30.3438Z" fill="#42535B"/>
<path d="M6.34375 27.6875C6.05063 27.6875 5.8125 27.9256 5.8125 28.2188V29.2812C5.8125 29.5744 6.05063 29.8125 6.34375 29.8125C6.63687 29.8125 6.875 29.5744 6.875 29.2812V28.2188C6.875 27.9256 6.63687 27.6875 6.34375 27.6875ZM9 27.6875C8.70688 27.6875 8.46875 27.9256 8.46875 28.2188V29.2812C8.46875 29.5744 8.70688 29.8125 9 29.8125C9.29312 29.8125 9.53125 29.5744 9.53125 29.2812V28.2188C9.53125 27.9256 9.29312 27.6875 9 27.6875ZM11.6562 27.6875C11.3631 27.6875 11.125 27.9256 11.125 28.2188V29.2812C11.125 29.5744 11.3631 29.8125 11.6562 29.8125C11.9494 29.8125 12.1875 29.5744 12.1875 29.2812V28.2188C12.1875 27.9256 11.9494 27.6875 11.6562 27.6875ZM14.3125 27.6875C14.0194 27.6875 13.7812 27.9256 13.7812 28.2188V29.2812C13.7812 29.5744 14.0194 29.8125 14.3125 29.8125C14.6056 29.8125 14.8438 29.5744 14.8438 29.2812V28.2188C14.8438 27.9256 14.6056 27.6875 14.3125 27.6875ZM3.6875 27.6875C3.39438 27.6875 3.15625 27.9256 3.15625 28.2188V29.2812C3.15625 29.5744 3.39438 29.8125 3.6875 29.8125C3.98062 29.8125 4.21875 29.5744 4.21875 29.2812V28.2188C4.21875 27.9256 3.98062 27.6875 3.6875 27.6875ZM8.46875 8.5625C10.8122 8.5625 12.7188 6.65591 12.7188 4.3125C12.7188 1.96909 10.8122 0.0625 8.46875 0.0625C6.12534 0.0625 4.21875 1.96909 4.21875 4.3125C4.21875 6.65591 6.12534 8.5625 8.46875 8.5625ZM8.46875 1.125C10.2267 1.125 11.6562 2.55455 11.6562 4.3125C11.6562 6.07045 10.2267 7.5 8.46875 7.5C6.7108 7.5 5.28125 6.07045 5.28125 4.3125C5.28125 2.55455 6.7108 1.125 8.46875 1.125Z" fill="#42535B"/>
</svg>
