<svg width="33" height="42" viewBox="0 0 33 42" fill="none" xmlns="http://www.w3.org/2000/svg">
<path d="M2.06818 22.2727C2.38636 22.4318 2.38636 22.9091 2.06818 23.0682C0.954545 23.5455 0 24.4205 0 24.8977C0 25.4545 1.67045 26.7273 3.26136 27.0455V40.3295C3.26136 40.3295 4.77273 42 8.27273 42C11.7727 42 13.2841 40.3295 13.2841 40.3295V28C13.2841 27.4432 13.7614 26.9659 14.3182 26.9659H17.8977C18.4545 26.9659 18.9318 27.4432 18.9318 28V40.3295C18.9318 40.3295 20.4432 42 23.9432 42C27.4432 42 28.9545 40.3295 28.9545 40.3295V27.0455C30.5455 26.7273 32.2159 25.5341 32.2159 24.8977C32.2159 24.4205 31.2614 23.625 30.1477 23.0682C29.8295 22.9091 29.8295 22.4318 30.1477 22.2727C31.2614 21.7159 32.2159 20.9205 32.2159 20.4432C32.2159 19.8068 30.5455 18.6136 28.9545 18.2955V8.90909V7.95455C28.9545 5.01136 27.125 2.30682 24.3409 1.27273C22.1136 0.556818 19.4886 0 15.9886 0C12.4886 0 9.86364 0.556818 7.875 1.27273C5.09091 2.30682 3.26136 5.01136 3.26136 7.95455V8.90909V18.2955C1.67045 18.6136 0 19.8068 0 20.4432C0 20.9205 0.954545 21.7159 2.06818 22.2727ZM13.2045 17.1818V11.7727C13.2045 10.2614 14.3182 8.90909 15.8295 8.82955C17.4205 8.75 18.7727 10.0227 18.7727 11.6136V17.1818C18.7727 17.7386 18.2955 18.2159 17.7386 18.2159H14.1591C13.6818 18.2159 13.2045 17.7386 13.2045 17.1818Z" fill="url(#paint0_linear)"/>
<defs>
<linearGradient id="paint0_linear" x1="19.2423" y1="43.0694" x2="12.3869" y2="-0.213738" gradientUnits="userSpaceOnUse">
<stop stop-color="#E4BD4F"/>
<stop offset="1" stop-color="#F6D565"/>
</linearGradient>
</defs>
</svg>
