<svg width="32" height="32" viewBox="0 0 32 32" fill="none" xmlns="http://www.w3.org/2000/svg">
<path d="M31.3848 7.38458V25.2307C31.3848 28.6277 24.4986 31.3846 16.0001 31.3846C7.50165 31.3846 0.615534 28.6277 0.615534 25.2307V7.38458H31.3848Z" fill="#F3CD66"/>
<path d="M27.0771 7.38458H31.3848V25.2307C31.3848 26.8861 29.7417 28.3939 27.0771 29.5015V7.38458Z" fill="#FCDC87"/>
<path d="M9.84619 7.38458V30.8738C4.4123 29.92 0.615422 27.7539 0.615422 25.2307V7.38458H9.84619Z" fill="#E1BD5C"/>
<path d="M16.0001 0.615417C24.4968 0.615417 31.3848 3.37053 31.3848 6.76926C31.3848 10.168 24.4968 12.9231 16.0001 12.9231C7.50345 12.9231 0.615534 10.168 0.615534 6.76926C0.615534 3.37053 7.50345 0.615417 16.0001 0.615417Z" fill="#F3CD66"/>
<path d="M16 0C24.9724 0 32 2.97236 32 6.76923V25.2308C32 29.0276 24.9724 32 16 32C7.02764 32 0 29.0276 0 25.2308V6.76923C0 2.97236 7.02764 0 16 0ZM1.23077 12.9231C1.23077 15.6001 7.16316 18.4615 16 18.4615C24.8368 18.4615 30.7692 15.6001 30.7692 12.9231V9.42157C28.3753 11.8831 22.7386 13.5385 16 13.5385C9.26142 13.5385 3.6247 11.8645 1.23077 9.42157V12.9231ZM16 1.23077C7.16316 1.23077 1.23077 4.09225 1.23077 6.76923C1.23077 9.44621 7.16316 12.3077 16 12.3077C24.8368 12.3077 30.7692 9.44621 30.7692 6.76923C30.7692 4.09225 24.8368 1.23077 16 1.23077ZM16 30.7692C24.8368 30.7692 30.7692 27.9078 30.7692 25.2308V21.7169C28.7939 23.7476 24.5661 25.2737 19.1632 25.7169H19.1139C18.774 25.7305 18.4874 25.466 18.4739 25.1262C18.4603 24.7864 18.7248 24.4997 19.0646 24.4862C25.7353 23.9447 30.7692 21.6124 30.7692 19.0769V15.5754C28.3753 18.037 22.7386 19.6923 16 19.6923C9.26142 19.6923 3.6247 18.0183 1.23077 15.5754V19.0769C1.23077 20.1415 2.17217 21.2431 3.88912 22.1538C4.1884 22.3239 4.29297 22.704 4.1232 23.003C3.95312 23.3023 3.57302 23.4069 3.27374 23.2368C2.52374 22.8428 1.83533 22.341 1.23077 21.7476V25.2308C1.23077 27.9078 7.16316 30.7692 16 30.7692Z" fill="#42535B"/>
<path d="M23.2735 4.49221C23.2245 4.49822 23.1749 4.49822 23.126 4.49221C20.7903 3.94504 18.3985 3.67671 15.9998 3.69233C15.1812 3.69233 14.369 3.69233 13.5752 3.77226C13.2353 3.7945 12.9418 3.53669 12.9198 3.19684C12.8976 2.857 13.1554 2.56373 13.4952 2.54149C14.3135 2.46157 15.1566 2.46157 15.9998 2.46157C18.4973 2.43572 20.9892 2.71066 23.4213 3.28008C23.7612 3.32094 24.0037 3.62953 23.9628 3.96938C23.9219 4.30922 23.6133 4.55171 23.2735 4.51084V4.49221ZM10.7996 4.08627C10.1229 4.19684 9.47661 4.32605 8.87986 4.47389C8.54993 4.55712 8.21519 4.3573 8.13196 4.02767C8.04873 3.69804 8.24855 3.36331 8.57817 3.28008C9.19356 3.11992 9.88887 2.9847 10.6028 2.86782C10.9427 2.81343 11.2624 3.0448 11.3168 3.38464C11.3711 3.72449 11.1395 4.0442 10.7996 4.09858V4.08627ZM15.9998 23.3846C16.3396 23.3846 16.6151 23.6602 16.6151 24V25.2308C16.6151 25.5706 16.3396 25.8462 15.9998 25.8462C15.6599 25.8462 15.3844 25.5706 15.3844 25.2308V24C15.3844 23.6602 15.6599 23.3846 15.9998 23.3846ZM12.9228 23.2614C13.2627 23.2614 13.5382 23.537 13.5382 23.8768V25.1076C13.5382 25.4474 13.2627 25.723 12.9228 25.723C12.583 25.723 12.3074 25.4474 12.3074 25.1076V23.8768C12.3074 23.537 12.583 23.2614 12.9228 23.2614ZM9.8459 22.8309C10.1857 22.8309 10.4613 23.1064 10.4613 23.4462V24.677C10.4613 25.0169 10.1857 25.2924 9.8459 25.2924C9.50606 25.2924 9.23052 25.0169 9.23052 24.677V23.4462C9.23052 23.1064 9.50606 22.8309 9.8459 22.8309ZM6.76898 22.1539C7.10882 22.1539 7.38437 22.4294 7.38437 22.7693V24C7.38437 24.3399 7.10882 24.6154 6.76898 24.6154C6.42914 24.6154 6.15359 24.3399 6.15359 24V22.7693C6.15359 22.4294 6.42914 22.1539 6.76898 22.1539Z" fill="#8D6C9F"/>
</svg>
