<svg id="Слой_1" data-name="Слой 1" xmlns="http://www.w3.org/2000/svg" viewBox="0 0 27.75724 27.07559">
  <defs>
    <style>
      .cls-1 {
        fill: #fff;
        fill-rule: evenodd;
      }
    </style>
  </defs>
  <title>white-github</title>
  <path class="cls-1" d="M14.03576.22105a13.8823,13.8823,0,0,0-4.38761,27.0518c.69361.1284.94831-.3012.94831-.6678,0-.331-.0129-1.4244-.0189-2.5843-3.86107.8397-4.6758-1.6377-4.6758-1.6377a3.67524,3.67524,0,0,0-1.541-2.031c-1.25922-.8615.09492-.8438.09492-.8438a2.91635,2.91635,0,0,1,2.1275,1.4304,2.95429,2.95429,0,0,0,4.03877,1.1538,2.956,2.956,0,0,1,.8811-1.8561c-3.08264-.3509-6.32319-1.5412-6.32319-6.8598a5.37239,5.37239,0,0,1,1.43-3.72581A4.98833,4.98833,0,0,1,6.7443,5.97738S7.90975,5.60432,10.562,7.4002a13.16276,13.16276,0,0,1,6.9506,0c2.649-1.79588,3.8128-1.42282,3.8128-1.42282a4.98173,4.98173,0,0,1,.1361,3.67336,5.36184,5.36184,0,0,1,1.4284,3.72581c0,5.3313-3.2468,6.5052-6.3373,6.8488a3.31833,3.31833,0,0,1,.9414,2.5705c0,1.857-.0161,3.3518-.0161,3.8092,0,.3694.2498.8022.9533.6659A13.88275,13.88275,0,0,0,14.03576.22105" transform="translate(-0.15702 -0.22105)"/>
  <path class="cls-1" d="M5.41347,20.15045c-.03056.0692-.139.0897-.23787.0423-.10066-.0453-.1572-.1393-.12456-.2085.02988-.071.13858-.0905.239-.0434.10089.0455.15835.1404.12341.2096" transform="translate(-0.15702 -0.22105)"/>
  <path class="cls-1" d="M5.97577,20.77755c-.06619.0614-.19558.0329-.28338-.0641a.21229.21229,0,0,1-.04068-.2885c.06826-.0614.19375-.0326.28476.0641.09078.098.10848.2265.0393.2885" transform="translate(-0.15702 -0.22105)"/>
  <path class="cls-1" d="M6.523,21.577c-.085.0591-.224.0037-.31-.1198-.085-.1234-.085-.2714.00184-.3307.08617-.0593.22311-.006.3102.1165.08478.1253.08478.2736-.00207.334" transform="translate(-0.15702 -0.22105)"/>
  <path class="cls-1" d="M7.2726,22.34935c-.07607.0839-.2381.0614-.35669-.0531a.2669.2669,0,0,1-.07883-.3547c.077-.0841.23994-.0604.35945.0531.12043.1117.1572.2717.07607.3547" transform="translate(-0.15702 -0.22105)"/>
  <path class="cls-1" d="M8.3069,22.79765c-.03355.1087-.18961.1582-.34681.112-.157-.0476-.2597-.175-.228-.2848.03264-.1095.18938-.1609.34773-.1115.15674.0473.25971.1737.22707.2843" transform="translate(-0.15702 -0.22105)"/>
  <path class="cls-1" d="M9.44263,22.881c.0039.1144-.1294.2094-.29441.2112-.16594.0039-.30015-.0887-.302-.2014,0-.1156.13031-.2096.29624-.2123.165-.0033.30016.0887.30016.2025" transform="translate(-0.15702 -0.22105)"/>
  <path class="cls-1" d="M10.49976,22.70105c.0197.1117-.0949.2264-.2588.2568-.1611.0296-.3103-.0394-.3307-.1501-.02-.1145.0967-.2292.2576-.2589.1641-.0285.311.0387.3319.1522" transform="translate(-0.15702 -0.22105)"/>
</svg>
