<svg id="Слой_1" data-name="Слой 1" xmlns="http://www.w3.org/2000/svg" viewBox="0 0 27.80902 27.809">
  <defs>
    <style>
      .cls-1 {
        fill: #fff;
        fill-rule: evenodd;
      }
    </style>
  </defs>
  <title>white-twitter</title>
  <path class="cls-1" d="M14.15571.0955A13.9045,13.9045,0,1,0,28.0602,14,13.9045,13.9045,0,0,0,14.15571.0955Zm-.3872,11.7828-.0292-.4812a2.811,2.811,0,0,1,1.8965-2.82781A3.32286,3.32286,0,0,1,17.3379,8.53a3.959,3.959,0,0,1,.82671.432l.47649.324.5252-.16692a5.42582,5.42582,0,0,0,.8559-.33384c.1653-.08837.31121-.13747.31121-.108a2.85585,2.85585,0,0,1-.66131,1.05062c-.40849.44188-.29179.48118.53491.18656.496-.16692.50569-.16692.4085.01964a6.42021,6.42021,0,0,1-.68081.75608c-.54469.54-.5739.5989-.5739,1.0506a10.12794,10.12794,0,0,1-.66129,2.9457,8.53812,8.53812,0,0,1-3.23871,3.8097,8.21563,8.21563,0,0,1-6.38023.7266,7.39807,7.39807,0,0,1-1.8771-.8641,2.88282,2.88282,0,0,1,.79753-.0785,5.47472,5.47472,0,0,0,2.6065-.7266l.52521-.3142-.603-.2062A2.94021,2.94021,0,0,1,8.711,15.4229c-.05836-.2062-.0389-.216.50574-.216l.56408-.0098-.47655-.2259a3.14073,3.14073,0,0,1-1.33244-1.2568,3.51855,3.51855,0,0,1-.35014-1.3157,1.145,1.145,0,0,1,.45712.108c.67109.2454.75863.1865.36959-.2259a2.83363,2.83363,0,0,1-.603-2.90636l.16534-.4713.64191.63822a7.91051,7.91051,0,0,0,4.62958,2.278Z" transform="translate(-0.25119 -0.0955)"/>
</svg>
