<svg id="Слой_1" data-name="Слой 1" xmlns="http://www.w3.org/2000/svg" viewBox="0 0 27.80894 27.809">
  <defs>
    <style>
      .cls-1 {
        fill: #fff;
        fill-rule: evenodd;
      }
    </style>
  </defs>
  <title>white-reddit</title>
  <path class="cls-1" d="M28.12184,14.0102A13.90447,13.90447,0,1,1,14.21744.1057,13.90447,13.90447,0,0,1,28.12184,14.0102Zm-6.0245-2.4876a2.30174,2.30174,0,0,1,1.1845,4.2841,4.04758,4.04758,0,0,1,.0428.5826c0,3.2796-4,5.9479-8.9163,5.9479-4.91677,0-8.91631-2.6683-8.91631-5.9479a4.04743,4.04743,0,0,1,.04982-.6275,2.3073,2.3073,0,1,1,2.75054-3.6944,11.508,11.508,0,0,1,5.85325-1.6214l1.3228-4.16282a.44592.44592,0,0,1,.527-.29853l3.4259.80247a1.91069,1.91069,0,1,1-.1784.871l-3.0488-.71476-1.1175,3.51632a11.3299,11.3299,0,0,1,5.4954,1.6381A2.31044,2.31044,0,0,1,22.09734,11.5226Z" transform="translate(-0.3129 -0.1057)"/>
  <path class="cls-1" d="M23.03764,14.8909a5.59058,5.59058,0,0,0-1.7135-2.2505,1.41754,1.41754,0,0,1,1.7135,2.2505Z" transform="translate(-0.3129 -0.1057)"/>
  <path class="cls-1" d="M21.15994,6.57152a1.02357,1.02357,0,1,1-1.0282,1.02367,1.027,1.027,0,0,1,1.0282-1.02367Z" transform="translate(-0.3129 -0.1057)"/>
  <path class="cls-1" d="M14.40844,21.4491c4.424,0,8.0241-2.2699,8.0241-5.0593,0-.094-.0048-.1869-.0127-.28a3.34683,3.34683,0,0,0-.1986-.8693,4.61552,4.61552,0,0,0-1.4485-1.9269,6.83736,6.83736,0,0,0-.7386-.5272,10.80664,10.80664,0,0,0-5.6257-1.4563,10.85385,10.85385,0,0,0-5.56311,1.4184,7.03,7.03,0,0,0-.73967.5155,4.6591,4.6591,0,0,0-1.50652,1.9664,3.34164,3.34164,0,0,0-.20066.8674c-.00861.0967-.014.1937-.014.292C6.38444,19.1794,9.98384,21.4491,14.40844,21.4491Zm-2.9343-7.5061a1.37768,1.37768,0,0,1,1.3627,1.3775,1.36077,1.36077,0,0,1-1.3627,1.3569,1.37832,1.37832,0,0,1-1.3833-1.3569A1.39564,1.39564,0,0,1,11.47414,13.943Zm5.9706-.0005a1.39721,1.39721,0,0,0-1.3854,1.3772,1.37971,1.37971,0,0,0,1.3854,1.357,1.36,1.36,0,0,0,1.3631-1.357A1.37783,1.37783,0,0,0,17.44474,13.9425Zm-2.9852,5.4122a3.59733,3.59733,0,0,0,2.6001-.7457.44891.44891,0,0,1,.6319.0005.44218.44218,0,0,1-.0004.6279,4.403,4.403,0,0,1-3.2316,1.0059l-.0056-.0007-.0053-.0007-.0051.0007-.0055.0007a4.39769,4.39769,0,0,1-3.2309-1.0063.4423.4423,0,0,1,0-.628.44724.44724,0,0,1,.6309,0,3.59576,3.59576,0,0,0,2.6.7457l.0051.0005.0055.0006Z" transform="translate(-0.3129 -0.1057)"/>
  <path class="cls-1" d="M5.37638,13.8292a1.42184,1.42184,0,0,1,2.15015-1.2174A5.6386,5.6386,0,0,0,5.8017,14.8379a1.40816,1.40816,0,0,1-.42532-1.0087Z" transform="translate(-0.3129 -0.1057)"/>
</svg>
