<svg id="Слой_1" data-name="Слой 1" xmlns="http://www.w3.org/2000/svg" viewBox="0 0 25.4366 25.43657">
  <defs>
    <style>
      .cls-1 {
        fill: #fff;
        fill-rule: evenodd;
      }
    </style>
  </defs>
  <title>telegram2</title>
  <path class="cls-1" d="M13,25.71828A12.71828,12.71828,0,1,0,.2817,13,12.71833,12.71833,0,0,0,13,25.71828Zm-2.3316-6.889a.79614.79614,0,0,0,.6216-.304l.0143-.014,1.5278-1.4855,3.1781,2.348c.5848.3227,1.007.1556,1.1527-.543L19.2492,8.9992c.2136-.85638-.3265-1.2448-.886-.99077L6.11233,12.73228c-.83624.3354-.83136.802-.15243,1.0099l3.14385.9812,7.27835-4.5918c.3436-.20837.659-.09636.4001.1334l-5.8974,5.3219-.0001.0001.0001.0001Z" transform="translate(-0.2817 -0.28172)"/>
</svg>
