<svg id="Слой_1" data-name="Слой 1" xmlns="http://www.w3.org/2000/svg" viewBox="0 0 27.80902 27.809">
  <defs>
    <style>
      .cls-1 {
        fill: #fff;
        fill-rule: evenodd;
      }
    </style>
  </defs>
  <title>white-mail</title>
  <path class="cls-1" d="M14.05293,27.94473A13.9045,13.9045,0,1,0,.14842,14.04023,13.90456,13.90456,0,0,0,14.05293,27.94473Zm.1937-14.685c-1.0862,0-6.6825-3.1735-6.6825-3.1735V9.59068A1.113,1.113,0,0,1,8.67761,8.47832h11.138a1.11319,1.11319,0,0,1,1.11411,1.11236l-.00891.55615S15.38513,13.25973,14.24663,13.25973Zm6.6742-1.4443s-5.4834,2.9738-6.6742,2.9738c-1.0862,0-6.67415-2.9738-6.6736-2.9738l-.0089,6.6742a1.11333,1.11333,0,0,0,1.11348,1.1123h11.138a1.11315,1.11315,0,0,0,1.11411-1.1123Z" transform="translate(-0.14842 -0.13573)"/>
</svg>
