<svg width="18" height="18" viewBox="0 0 18 18" fill="none" xmlns="http://www.w3.org/2000/svg">
<path fill-rule="evenodd" clip-rule="evenodd" d="M3.34882 4.46506L4.46509 3.34879C4.77334 3.04054 5.27311 3.04054 5.58136 3.34879L6.41856 4.18599L7.53483 5.30226L9.40741 7.17484C9.97418 6.12777 9.8151 4.79185 8.93017 3.90692L6.9767 1.95345C5.89782 0.874571 4.14862 0.874572 3.06975 1.95345L1.95348 3.06972C0.874601 4.14859 0.874601 5.89779 1.95348 6.97667L3.90695 8.93014C4.79188 9.81507 6.1278 9.97415 7.17487 9.40738L5.30229 7.5348L4.18602 6.41853L3.34882 5.58133C3.04057 5.27308 3.04057 4.77331 3.34882 4.46506ZM8.09297 13.1162C7.20804 12.2312 7.04896 10.8953 7.61573 9.84824L9.48831 11.7208L10.6046 12.8371L11.4418 13.6743C11.75 13.9825 12.2498 13.9825 12.5581 13.6743L13.6743 12.558C13.9826 12.2498 13.9826 11.75 13.6743 11.4418L12.8371 10.6046L11.7209 9.48828L9.84827 7.6157C10.8953 7.04893 12.2313 7.20801 13.1162 8.09294L15.0697 10.0464C16.1485 11.1253 16.1485 12.8745 15.0697 13.9534L13.9534 15.0696C12.8745 16.1485 11.1253 16.1485 10.0464 15.0696L8.09297 13.1162ZM5.58136 6.13947C5.42723 6.29359 5.42723 6.54348 5.58136 6.6976L10.3255 11.4418C10.4796 11.5959 10.7295 11.5959 10.8836 11.4418L11.4418 10.8836C11.5959 10.7295 11.5959 10.4796 11.4418 10.3255L6.69763 5.58133C6.54351 5.4272 6.29362 5.4272 6.13949 5.58133L5.58136 6.13947Z" fill="#353F50" fill-opacity="0.8"/>
</svg>
