<svg width="28" height="36" viewBox="0 0 28 36" fill="none" xmlns="http://www.w3.org/2000/svg">
<mask id="mask0" mask-type="alpha" maskUnits="userSpaceOnUse" x="0" y="0" width="28" height="36">
<path d="M2.67441 19.073C2.94595 19.1969 2.94595 19.5942 2.67441 19.7199C1.74498 20.1445 0.994141 20.8207 0.994141 21.1961C0.994141 21.6991 2.3409 22.6814 3.65851 22.9329V33.7453C3.65851 33.7453 4.89593 35.1176 7.69698 35.1176C10.498 35.1176 11.7355 33.7453 11.7355 33.7453V23.7493C11.7355 23.2992 12.1018 22.9329 12.5519 22.9329H15.4422C15.8924 22.9329 16.2587 23.2992 16.2587 23.7493V33.7453C16.2587 33.7453 17.4961 35.1176 20.2972 35.1176C23.0982 35.1176 24.3356 33.7453 24.3356 33.7453V22.9329C25.6532 22.6795 27 21.6973 27 21.1961C27 20.8207 26.2492 20.1445 25.3197 19.7199C25.0482 19.596 25.0482 19.1987 25.3197 19.073C26.2492 18.6483 27 17.9722 27 17.5968C27 17.0938 25.6532 16.1115 24.3356 15.86V7.46049C24.3356 5.05489 22.8577 2.87527 20.596 2.057C18.985 1.47383 16.8109 1 13.9989 1C11.1869 1 9.01277 1.47383 7.40175 2.057C5.13649 2.87527 3.65851 5.05489 3.65851 7.46049V15.86C2.3409 16.1133 0.994141 17.0956 0.994141 17.5968C0.994141 17.9722 1.74498 18.6502 2.67441 19.073ZM11.7336 14.9816V10.6169C11.7336 9.39225 12.6503 8.29516 13.8731 8.23137C15.178 8.16394 16.255 9.2009 16.255 10.4894V14.9834C16.255 15.4336 15.8887 15.7999 15.4386 15.7999H12.5483C12.0999 15.7981 11.7336 15.4318 11.7336 14.9816Z" fill="url(#paint0_linear)" stroke="#E8C96F" stroke-width="0.25" stroke-miterlimit="10"/>
</mask>
<g mask="url(#mask0)">
<path d="M-0.135386 38.369L-6 1.76273L24.4133 -3L30.2772 33.6075L-0.135386 38.369Z" fill="white"/>
</g>
<defs>
<linearGradient id="paint0_linear" x1="25.2793" y1="35.368" x2="6.82239" y2="-1.86395" gradientUnits="userSpaceOnUse">
<stop stop-color="#E3B858"/>
<stop offset="0.989682" stop-color="#F7D269"/>
</linearGradient>
</defs>
</svg>
